<?xml version="1.0" encoding="UTF-8" standalone="no"?><!DOCTYPE svg PUBLIC "-//W3C//DTD SVG 1.1//EN" "http://www.w3.org/Graphics/SVG/1.1/DTD/svg11.dtd"><svg width="100%" height="100%" viewBox="0 0 829 339" version="1.1" xmlns="http://www.w3.org/2000/svg" xmlns:xlink="http://www.w3.org/1999/xlink" xml:space="preserve" xmlns:serif="http://www.serif.com/" style="fill-rule:evenodd;clip-rule:evenodd;stroke-linejoin:round;stroke-miterlimit:2;"><rect id="Artboard1" x="0" y="0" width="828.083" height="338.427" style="fill:none;"/><clipPath id="_clip1"><rect x="0" y="0" width="828.083" height="338.427"/></clipPath><g clip-path="url(#_clip1)"><g><g><clipPath id="_clip2"><rect x="779.485" y="-168.704" width="97.594" height="169.037"/></clipPath><g clip-path="url(#_clip2)"><path d="M816.411,20.579l0,1.074l-36.926,21.319l-36.926,-21.319l0,-42.639l36.926,-21.319l36.926,21.319l0,41.565Zm-36.926,-69.515l-42.669,24.634l0,49.271l42.669,24.634l42.669,-24.635l0,-4.389l0,-5.76l0,-39.121l-42.669,-24.634Z" style="fill:#ed4d07;fill-rule:nonzero;"/></g></g><g><clipPath id="_clip3"><rect x="779.485" y="0.333" width="97.594" height="169.038"/></clipPath><g clip-path="url(#_clip3)"><path d="M816.411,189.617l0,1.073l-36.926,21.32l-36.926,-21.319l0,-42.639l36.926,-21.32l36.926,21.32l0,41.565Zm-36.926,-69.516l-42.669,24.635l0,49.27l42.669,24.635l42.669,-24.635l0,-4.389l0,-5.76l0,-39.12l-42.669,-24.636Z" style="fill:#ed4d07;fill-rule:nonzero;"/><path d="M865.208,105.098l0,1.074l-36.926,21.319l-36.926,-21.319l0,-42.639l36.926,-21.319l36.926,21.319l0,41.565Zm-36.926,-69.515l-42.669,24.634l0,49.27l42.669,24.635l42.669,-24.635l0,-4.389l0,-5.76l0,-39.12l-42.669,-24.635Z" style="fill:#ed4d07;fill-rule:nonzero;"/><path d="M816.411,20.579l0,1.074l-36.926,21.319l-36.926,-21.319l0,-42.639l36.926,-21.319l36.926,21.319l0,41.565Zm-36.926,-69.515l-42.669,24.634l0,49.271l42.669,24.634l42.669,-24.635l0,-4.389l0,-5.76l0,-39.121l-42.669,-24.634Z" style="fill:#ed4d07;fill-rule:nonzero;"/></g></g><g><clipPath id="_clip4"><rect x="779.485" y="169.371" width="97.594" height="169.037"/></clipPath><g clip-path="url(#_clip4)"><path d="M816.411,358.655l0,1.073l-36.926,21.32l-36.926,-21.319l0,-42.64l36.926,-21.319l36.926,21.32l0,41.565Zm-36.926,-69.516l-42.669,24.635l0,49.27l42.669,24.635l42.669,-24.636l0,-4.388l0,-5.76l0,-39.121l-42.669,-24.635Z" style="fill:#ed4d07;fill-rule:nonzero;"/><path d="M865.208,274.136l0,1.073l-36.926,21.32l-36.926,-21.319l0,-42.639l36.926,-21.32l36.926,21.32l0,41.565Zm-36.926,-69.516l-42.669,24.635l0,49.27l42.669,24.634l42.669,-24.634l0,-4.389l0,-5.76l0,-39.121l-42.669,-24.635Z" style="fill:#ed4d07;fill-rule:nonzero;"/><path d="M816.411,189.617l0,1.073l-36.926,21.32l-36.926,-21.319l0,-42.639l36.926,-21.32l36.926,21.32l0,41.565Zm-36.926,-69.516l-42.669,24.635l0,49.27l42.669,24.635l42.669,-24.635l0,-4.389l0,-5.76l0,-39.12l-42.669,-24.636Z" style="fill:#ed4d07;fill-rule:nonzero;"/></g></g><g><clipPath id="_clip5"><rect x="779.485" y="338.408" width="97.594" height="169.042"/></clipPath><g clip-path="url(#_clip5)"><path d="M816.411,358.655l0,1.073l-36.926,21.32l-36.926,-21.319l0,-42.64l36.926,-21.319l36.926,21.32l0,41.565Zm-36.926,-69.516l-42.669,24.635l0,49.27l42.669,24.635l42.669,-24.636l0,-4.388l0,-5.76l0,-39.121l-42.669,-24.635Z" style="fill:#ed4d07;fill-rule:nonzero;"/></g></g><g><clipPath id="_clip6"><rect x="681.891" y="-168.704" width="97.594" height="169.037"/></clipPath><g clip-path="url(#_clip6)"><path d="M816.411,20.579l0,1.074l-36.926,21.319l-36.926,-21.319l0,-42.639l36.926,-21.319l36.926,21.319l0,41.565Zm-36.926,-69.515l-42.669,24.634l0,49.271l42.669,24.634l42.669,-24.635l0,-4.389l0,-5.76l0,-39.121l-42.669,-24.634Z" style="fill:#ed4d07;fill-rule:nonzero;"/><path d="M718.817,20.579l0,1.074l-36.926,21.319l-36.926,-21.319l0,-42.639l36.926,-21.319l36.926,21.319l0,41.565Zm-36.926,-69.515l-42.669,24.634l0,49.271l42.669,24.634l42.669,-24.635l0,-4.389l0,-5.76l0,-39.121l-42.669,-24.634Z" style="fill:#ed4d07;fill-rule:nonzero;"/></g></g><g><clipPath id="_clip7"><rect x="681.891" y="0.333" width="97.594" height="169.038"/></clipPath><g clip-path="url(#_clip7)"><path d="M816.411,189.617l0,1.073l-36.926,21.32l-36.926,-21.319l0,-42.639l36.926,-21.32l36.926,21.32l0,41.565Zm-36.926,-69.516l-42.669,24.635l0,49.27l42.669,24.635l42.669,-24.635l0,-4.389l0,-5.76l0,-39.12l-42.669,-24.636Z" style="fill:#ed4d07;fill-rule:nonzero;"/><path d="M718.817,189.617l0,1.073l-36.926,21.32l-36.926,-21.319l0,-42.639l36.926,-21.32l36.926,21.32l0,41.565Zm-36.926,-69.516l-42.669,24.635l0,49.27l42.669,24.635l42.669,-24.635l0,-4.389l0,-5.76l0,-39.12l-42.669,-24.636Z" style="fill:#ed4d07;fill-rule:nonzero;"/><path d="M767.614,105.098l0,1.074l-36.926,21.319l-36.926,-21.319l0,-42.639l36.926,-21.319l36.926,21.319l0,41.565Zm-36.926,-69.515l-42.669,24.634l0,49.27l42.669,24.635l42.669,-24.635l0,-4.389l0,-5.76l0,-39.12l-42.669,-24.635Z" style="fill:#ed4d07;fill-rule:nonzero;"/><path d="M816.411,20.579l0,1.074l-36.926,21.319l-36.926,-21.319l0,-42.639l36.926,-21.319l36.926,21.319l0,41.565Zm-36.926,-69.515l-42.669,24.634l0,49.271l42.669,24.634l42.669,-24.635l0,-4.389l0,-5.76l0,-39.121l-42.669,-24.634Z" style="fill:#ed4d07;fill-rule:nonzero;"/><path d="M718.817,20.579l0,1.074l-36.926,21.319l-36.926,-21.319l0,-42.639l36.926,-21.319l36.926,21.319l0,41.565Zm-36.926,-69.515l-42.669,24.634l0,49.271l42.669,24.634l42.669,-24.635l0,-4.389l0,-5.76l0,-39.121l-42.669,-24.634Z" style="fill:#ed4d07;fill-rule:nonzero;"/></g></g><g><clipPath id="_clip8"><rect x="681.891" y="169.371" width="97.594" height="169.037"/></clipPath><g clip-path="url(#_clip8)"><path d="M816.411,358.655l0,1.073l-36.926,21.32l-36.926,-21.319l0,-42.64l36.926,-21.319l36.926,21.32l0,41.565Zm-36.926,-69.516l-42.669,24.635l0,49.27l42.669,24.635l42.669,-24.636l0,-4.388l0,-5.76l0,-39.121l-42.669,-24.635Z" style="fill:#ed4d07;fill-rule:nonzero;"/><path d="M718.817,358.655l0,1.073l-36.926,21.32l-36.926,-21.319l0,-42.64l36.926,-21.319l36.926,21.32l0,41.565Zm-36.926,-69.516l-42.669,24.635l0,49.27l42.669,24.635l42.669,-24.636l0,-4.388l0,-5.76l0,-39.121l-42.669,-24.635Z" style="fill:#ed4d07;fill-rule:nonzero;"/><path d="M767.614,274.136l0,1.073l-36.926,21.32l-36.926,-21.319l0,-42.639l36.926,-21.32l36.926,21.32l0,41.565Zm-36.926,-69.516l-42.669,24.635l0,49.27l42.669,24.634l42.669,-24.634l0,-4.389l0,-5.76l0,-39.121l-42.669,-24.635Z" style="fill:#ed4d07;fill-rule:nonzero;"/><path d="M816.411,189.617l0,1.073l-36.926,21.32l-36.926,-21.319l0,-42.639l36.926,-21.32l36.926,21.32l0,41.565Zm-36.926,-69.516l-42.669,24.635l0,49.27l42.669,24.635l42.669,-24.635l0,-4.389l0,-5.76l0,-39.12l-42.669,-24.636Z" style="fill:#ed4d07;fill-rule:nonzero;"/><path d="M718.817,189.617l0,1.073l-36.926,21.32l-36.926,-21.319l0,-42.639l36.926,-21.32l36.926,21.32l0,41.565Zm-36.926,-69.516l-42.669,24.635l0,49.27l42.669,24.635l42.669,-24.635l0,-4.389l0,-5.76l0,-39.12l-42.669,-24.636Z" style="fill:#ed4d07;fill-rule:nonzero;"/></g></g><g><clipPath id="_clip9"><rect x="681.891" y="338.408" width="97.594" height="169.042"/></clipPath><g clip-path="url(#_clip9)"><path d="M816.411,358.655l0,1.073l-36.926,21.32l-36.926,-21.319l0,-42.64l36.926,-21.319l36.926,21.32l0,41.565Zm-36.926,-69.516l-42.669,24.635l0,49.27l42.669,24.635l42.669,-24.636l0,-4.388l0,-5.76l0,-39.121l-42.669,-24.635Z" style="fill:#ed4d07;fill-rule:nonzero;"/><path d="M718.817,358.655l0,1.073l-36.926,21.32l-36.926,-21.319l0,-42.64l36.926,-21.319l36.926,21.32l0,41.565Zm-36.926,-69.516l-42.669,24.635l0,49.27l42.669,24.635l42.669,-24.636l0,-4.388l0,-5.76l0,-39.121l-42.669,-24.635Z" style="fill:#ed4d07;fill-rule:nonzero;"/></g></g><g><clipPath id="_clip10"><rect x="584.297" y="-168.704" width="97.594" height="169.037"/></clipPath><g clip-path="url(#_clip10)"><path d="M718.817,20.579l0,1.074l-36.926,21.319l-36.926,-21.319l0,-42.639l36.926,-21.319l36.926,21.319l0,41.565Zm-36.926,-69.515l-42.669,24.634l0,49.271l42.669,24.634l42.669,-24.635l0,-4.389l0,-5.76l0,-39.121l-42.669,-24.634Z" style="fill:#ed4d07;fill-rule:nonzero;"/><path d="M621.223,20.579l0,1.074l-36.926,21.319l-36.926,-21.319l0,-42.639l36.926,-21.319l36.926,21.319l0,41.565Zm-36.926,-69.515l-42.669,24.634l0,49.271l42.669,24.634l42.669,-24.635l0,-4.389l0,-5.76l0,-39.121l-42.669,-24.634Z" style="fill:#ed4d07;fill-rule:nonzero;"/></g></g><g><clipPath id="_clip11"><rect x="584.297" y="0.333" width="97.594" height="169.038"/></clipPath><g clip-path="url(#_clip11)"><path d="M718.817,189.617l0,1.073l-36.926,21.32l-36.926,-21.319l0,-42.639l36.926,-21.32l36.926,21.32l0,41.565Zm-36.926,-69.516l-42.669,24.635l0,49.27l42.669,24.635l42.669,-24.635l0,-4.389l0,-5.76l0,-39.12l-42.669,-24.636Z" style="fill:#ed4d07;fill-rule:nonzero;"/><path d="M621.223,189.617l0,1.073l-36.926,21.32l-36.926,-21.319l0,-42.639l36.926,-21.32l36.926,21.32l0,41.565Zm-36.926,-69.516l-42.669,24.635l0,49.27l42.669,24.635l42.669,-24.635l0,-4.389l0,-5.76l0,-39.12l-42.669,-24.636Z" style="fill:#ed4d07;fill-rule:nonzero;"/><path d="M670.02,105.098l0,1.074l-36.926,21.319l-36.926,-21.319l0,-42.639l36.926,-21.319l36.926,21.319l0,41.565Zm-36.926,-69.515l-42.669,24.634l0,49.27l42.669,24.635l42.669,-24.635l0,-4.389l0,-5.76l0,-39.12l-42.669,-24.635Z" style="fill:#ed4d07;fill-rule:nonzero;"/><path d="M718.817,20.579l0,1.074l-36.926,21.319l-36.926,-21.319l0,-42.639l36.926,-21.319l36.926,21.319l0,41.565Zm-36.926,-69.515l-42.669,24.634l0,49.271l42.669,24.634l42.669,-24.635l0,-4.389l0,-5.76l0,-39.121l-42.669,-24.634Z" style="fill:#ed4d07;fill-rule:nonzero;"/><path d="M621.223,20.579l0,1.074l-36.926,21.319l-36.926,-21.319l0,-42.639l36.926,-21.319l36.926,21.319l0,41.565Zm-36.926,-69.515l-42.669,24.634l0,49.271l42.669,24.634l42.669,-24.635l0,-4.389l0,-5.76l0,-39.121l-42.669,-24.634Z" style="fill:#ed4d07;fill-rule:nonzero;"/></g></g><g><clipPath id="_clip12"><rect x="584.297" y="169.371" width="97.594" height="169.037"/></clipPath><g clip-path="url(#_clip12)"><path d="M718.817,358.655l0,1.073l-36.926,21.32l-36.926,-21.319l0,-42.64l36.926,-21.319l36.926,21.32l0,41.565Zm-36.926,-69.516l-42.669,24.635l0,49.27l42.669,24.635l42.669,-24.636l0,-4.388l0,-5.76l0,-39.121l-42.669,-24.635Z" style="fill:#ed4d07;fill-rule:nonzero;"/><path d="M621.223,358.655l0,1.073l-36.926,21.32l-36.926,-21.319l0,-42.64l36.926,-21.319l36.926,21.32l0,41.565Zm-36.926,-69.516l-42.669,24.635l0,49.27l42.669,24.635l42.669,-24.636l0,-4.388l0,-5.76l0,-39.121l-42.669,-24.635Z" style="fill:#ed4d07;fill-rule:nonzero;"/><path d="M670.02,274.136l0,1.073l-36.926,21.32l-36.926,-21.319l0,-42.639l36.926,-21.32l36.926,21.32l0,41.565Zm-36.926,-69.516l-42.669,24.635l0,49.27l42.669,24.634l42.669,-24.634l0,-4.389l0,-5.76l0,-39.121l-42.669,-24.635Z" style="fill:#ed4d07;fill-rule:nonzero;"/><path d="M718.817,189.617l0,1.073l-36.926,21.32l-36.926,-21.319l0,-42.639l36.926,-21.32l36.926,21.32l0,41.565Zm-36.926,-69.516l-42.669,24.635l0,49.27l42.669,24.635l42.669,-24.635l0,-4.389l0,-5.76l0,-39.12l-42.669,-24.636Z" style="fill:#ed4d07;fill-rule:nonzero;"/><path d="M621.223,189.617l0,1.073l-36.926,21.32l-36.926,-21.319l0,-42.639l36.926,-21.32l36.926,21.32l0,41.565Zm-36.926,-69.516l-42.669,24.635l0,49.27l42.669,24.635l42.669,-24.635l0,-4.389l0,-5.76l0,-39.12l-42.669,-24.636Z" style="fill:#ed4d07;fill-rule:nonzero;"/></g></g><g><clipPath id="_clip13"><rect x="584.297" y="338.408" width="97.594" height="169.042"/></clipPath><g clip-path="url(#_clip13)"><path d="M718.817,358.655l0,1.073l-36.926,21.32l-36.926,-21.319l0,-42.64l36.926,-21.319l36.926,21.32l0,41.565Zm-36.926,-69.516l-42.669,24.635l0,49.27l42.669,24.635l42.669,-24.636l0,-4.388l0,-5.76l0,-39.121l-42.669,-24.635Z" style="fill:#ed4d07;fill-rule:nonzero;"/><path d="M621.223,358.655l0,1.073l-36.926,21.32l-36.926,-21.319l0,-42.64l36.926,-21.319l36.926,21.32l0,41.565Zm-36.926,-69.516l-42.669,24.635l0,49.27l42.669,24.635l42.669,-24.636l0,-4.388l0,-5.76l0,-39.121l-42.669,-24.635Z" style="fill:#ed4d07;fill-rule:nonzero;"/></g></g><g><clipPath id="_clip14"><rect x="486.703" y="-168.704" width="97.594" height="169.037"/></clipPath><g clip-path="url(#_clip14)"><path d="M621.223,20.579l0,1.074l-36.926,21.319l-36.926,-21.319l0,-42.639l36.926,-21.319l36.926,21.319l0,41.565Zm-36.926,-69.515l-42.669,24.634l0,49.271l42.669,24.634l42.669,-24.635l0,-4.389l0,-5.76l0,-39.121l-42.669,-24.634Z" style="fill:#ed4d07;fill-rule:nonzero;"/><path d="M523.629,20.579l0,1.074l-36.926,21.319l-36.926,-21.319l0,-42.639l36.926,-21.319l36.926,21.319l0,41.565Zm-36.926,-69.515l-42.669,24.634l0,49.271l42.669,24.634l42.669,-24.635l0,-4.389l0,-5.76l0,-39.121l-42.669,-24.634Z" style="fill:#ed4d07;fill-rule:nonzero;"/></g></g><g><clipPath id="_clip15"><rect x="486.703" y="0.333" width="97.594" height="169.038"/></clipPath><g clip-path="url(#_clip15)"><path d="M621.223,189.617l0,1.073l-36.926,21.32l-36.926,-21.319l0,-42.639l36.926,-21.32l36.926,21.32l0,41.565Zm-36.926,-69.516l-42.669,24.635l0,49.27l42.669,24.635l42.669,-24.635l0,-4.389l0,-5.76l0,-39.12l-42.669,-24.636Z" style="fill:#ed4d07;fill-rule:nonzero;"/><path d="M523.629,189.617l0,1.073l-36.926,21.32l-36.926,-21.319l0,-42.639l36.926,-21.32l36.926,21.32l0,41.565Zm-36.926,-69.516l-42.669,24.635l0,49.27l42.669,24.635l42.669,-24.635l0,-4.389l0,-5.76l0,-39.12l-42.669,-24.636Z" style="fill:#ed4d07;fill-rule:nonzero;"/><path d="M572.426,105.098l0,1.074l-36.926,21.319l-36.926,-21.319l0,-42.639l36.926,-21.319l36.926,21.319l0,41.565Zm-36.926,-69.515l-42.669,24.634l0,49.27l42.669,24.635l42.669,-24.635l0,-4.389l0,-5.76l0,-39.12l-42.669,-24.635Z" style="fill:#ed4d07;fill-rule:nonzero;"/><path d="M621.223,20.579l0,1.074l-36.926,21.319l-36.926,-21.319l0,-42.639l36.926,-21.319l36.926,21.319l0,41.565Zm-36.926,-69.515l-42.669,24.634l0,49.271l42.669,24.634l42.669,-24.635l0,-4.389l0,-5.76l0,-39.121l-42.669,-24.634Z" style="fill:#ed4d07;fill-rule:nonzero;"/><path d="M523.629,20.579l0,1.074l-36.926,21.319l-36.926,-21.319l0,-42.639l36.926,-21.319l36.926,21.319l0,41.565Zm-36.926,-69.515l-42.669,24.634l0,49.271l42.669,24.634l42.669,-24.635l0,-4.389l0,-5.76l0,-39.121l-42.669,-24.634Z" style="fill:#ed4d07;fill-rule:nonzero;"/></g></g><g><clipPath id="_clip16"><rect x="486.703" y="169.371" width="97.594" height="169.037"/></clipPath><g clip-path="url(#_clip16)"><path d="M621.223,358.655l0,1.073l-36.926,21.32l-36.926,-21.319l0,-42.64l36.926,-21.319l36.926,21.32l0,41.565Zm-36.926,-69.516l-42.669,24.635l0,49.27l42.669,24.635l42.669,-24.636l0,-4.388l0,-5.76l0,-39.121l-42.669,-24.635Z" style="fill:#ed4d07;fill-rule:nonzero;"/><path d="M523.629,358.655l0,1.073l-36.926,21.32l-36.926,-21.319l0,-42.64l36.926,-21.319l36.926,21.32l0,41.565Zm-36.926,-69.516l-42.669,24.635l0,49.27l42.669,24.635l42.669,-24.636l0,-4.388l0,-5.76l0,-39.121l-42.669,-24.635Z" style="fill:#ed4d07;fill-rule:nonzero;"/><path d="M572.426,274.136l0,1.073l-36.926,21.32l-36.926,-21.319l0,-42.639l36.926,-21.32l36.926,21.32l0,41.565Zm-36.926,-69.516l-42.669,24.635l0,49.27l42.669,24.634l42.669,-24.634l0,-4.389l0,-5.76l0,-39.121l-42.669,-24.635Z" style="fill:#ed4d07;fill-rule:nonzero;"/><path d="M621.223,189.617l0,1.073l-36.926,21.32l-36.926,-21.319l0,-42.639l36.926,-21.32l36.926,21.32l0,41.565Zm-36.926,-69.516l-42.669,24.635l0,49.27l42.669,24.635l42.669,-24.635l0,-4.389l0,-5.76l0,-39.12l-42.669,-24.636Z" style="fill:#ed4d07;fill-rule:nonzero;"/><path d="M523.629,189.617l0,1.073l-36.926,21.32l-36.926,-21.319l0,-42.639l36.926,-21.32l36.926,21.32l0,41.565Zm-36.926,-69.516l-42.669,24.635l0,49.27l42.669,24.635l42.669,-24.635l0,-4.389l0,-5.76l0,-39.12l-42.669,-24.636Z" style="fill:#ed4d07;fill-rule:nonzero;"/></g></g><g><clipPath id="_clip17"><rect x="486.703" y="338.408" width="97.594" height="169.042"/></clipPath><g clip-path="url(#_clip17)"><path d="M621.223,358.655l0,1.073l-36.926,21.32l-36.926,-21.319l0,-42.64l36.926,-21.319l36.926,21.32l0,41.565Zm-36.926,-69.516l-42.669,24.635l0,49.27l42.669,24.635l42.669,-24.636l0,-4.388l0,-5.76l0,-39.121l-42.669,-24.635Z" style="fill:#ed4d07;fill-rule:nonzero;"/><path d="M523.629,358.655l0,1.073l-36.926,21.32l-36.926,-21.319l0,-42.64l36.926,-21.319l36.926,21.32l0,41.565Zm-36.926,-69.516l-42.669,24.635l0,49.27l42.669,24.635l42.669,-24.636l0,-4.388l0,-5.76l0,-39.121l-42.669,-24.635Z" style="fill:#ed4d07;fill-rule:nonzero;"/></g></g><g><clipPath id="_clip18"><rect x="389.109" y="-168.704" width="97.594" height="169.037"/></clipPath><g clip-path="url(#_clip18)"><path d="M523.629,20.579l0,1.074l-36.926,21.319l-36.926,-21.319l0,-42.639l36.926,-21.319l36.926,21.319l0,41.565Zm-36.926,-69.515l-42.669,24.634l0,49.271l42.669,24.634l42.669,-24.635l0,-4.389l0,-5.76l0,-39.121l-42.669,-24.634Z" style="fill:#ed4d07;fill-rule:nonzero;"/><path d="M426.035,20.579l0,1.074l-36.926,21.319l-36.926,-21.319l0,-42.639l36.926,-21.319l36.926,21.319l0,41.565Zm-36.926,-69.515l-42.669,24.634l0,49.271l42.669,24.634l42.669,-24.635l0,-4.389l0,-5.76l0,-39.121l-42.669,-24.634Z" style="fill:#ed4d07;fill-rule:nonzero;"/></g></g><g><clipPath id="_clip19"><rect x="389.109" y="0.333" width="97.594" height="169.038"/></clipPath><g clip-path="url(#_clip19)"><path d="M523.629,189.617l0,1.073l-36.926,21.32l-36.926,-21.319l0,-42.639l36.926,-21.32l36.926,21.32l0,41.565Zm-36.926,-69.516l-42.669,24.635l0,49.27l42.669,24.635l42.669,-24.635l0,-4.389l0,-5.76l0,-39.12l-42.669,-24.636Z" style="fill:#ed4d07;fill-rule:nonzero;"/><path d="M426.035,189.617l0,1.073l-36.926,21.32l-36.926,-21.319l0,-42.639l36.926,-21.32l36.926,21.32l0,41.565Zm-36.926,-69.516l-42.669,24.635l0,49.27l42.669,24.635l42.669,-24.635l0,-4.389l0,-5.76l0,-39.12l-42.669,-24.636Z" style="fill:#ed4d07;fill-rule:nonzero;"/><path d="M474.832,105.098l0,1.074l-36.926,21.319l-36.926,-21.319l0,-42.639l36.926,-21.319l36.926,21.319l0,41.565Zm-36.926,-69.515l-42.669,24.634l0,49.27l42.669,24.635l42.669,-24.635l0,-4.389l0,-5.76l0,-39.12l-42.669,-24.635Z" style="fill:#ed4d07;fill-rule:nonzero;"/><path d="M523.629,20.579l0,1.074l-36.926,21.319l-36.926,-21.319l0,-42.639l36.926,-21.319l36.926,21.319l0,41.565Zm-36.926,-69.515l-42.669,24.634l0,49.271l42.669,24.634l42.669,-24.635l0,-4.389l0,-5.76l0,-39.121l-42.669,-24.634Z" style="fill:#ed4d07;fill-rule:nonzero;"/><path d="M426.035,20.579l0,1.074l-36.926,21.319l-36.926,-21.319l0,-42.639l36.926,-21.319l36.926,21.319l0,41.565Zm-36.926,-69.515l-42.669,24.634l0,49.271l42.669,24.634l42.669,-24.635l0,-4.389l0,-5.76l0,-39.121l-42.669,-24.634Z" style="fill:#ed4d07;fill-rule:nonzero;"/></g></g><g><clipPath id="_clip20"><rect x="389.109" y="169.371" width="97.594" height="169.037"/></clipPath><g clip-path="url(#_clip20)"><path d="M523.629,358.655l0,1.073l-36.926,21.32l-36.926,-21.319l0,-42.64l36.926,-21.319l36.926,21.32l0,41.565Zm-36.926,-69.516l-42.669,24.635l0,49.27l42.669,24.635l42.669,-24.636l0,-4.388l0,-5.76l0,-39.121l-42.669,-24.635Z" style="fill:#ed4d07;fill-rule:nonzero;"/><path d="M426.035,358.655l0,1.073l-36.926,21.32l-36.926,-21.319l0,-42.64l36.926,-21.319l36.926,21.32l0,41.565Zm-36.926,-69.516l-42.669,24.635l0,49.27l42.669,24.635l42.669,-24.636l0,-4.388l0,-5.76l0,-39.121l-42.669,-24.635Z" style="fill:#ed4d07;fill-rule:nonzero;"/><path d="M474.832,274.136l0,1.073l-36.926,21.32l-36.926,-21.319l0,-42.639l36.926,-21.32l36.926,21.32l0,41.565Zm-36.926,-69.516l-42.669,24.635l0,49.27l42.669,24.634l42.669,-24.634l0,-4.389l0,-5.76l0,-39.121l-42.669,-24.635Z" style="fill:#ed4d07;fill-rule:nonzero;"/><path d="M523.629,189.617l0,1.073l-36.926,21.32l-36.926,-21.319l0,-42.639l36.926,-21.32l36.926,21.32l0,41.565Zm-36.926,-69.516l-42.669,24.635l0,49.27l42.669,24.635l42.669,-24.635l0,-4.389l0,-5.76l0,-39.12l-42.669,-24.636Z" style="fill:#ed4d07;fill-rule:nonzero;"/><path d="M426.035,189.617l0,1.073l-36.926,21.32l-36.926,-21.319l0,-42.639l36.926,-21.32l36.926,21.32l0,41.565Zm-36.926,-69.516l-42.669,24.635l0,49.27l42.669,24.635l42.669,-24.635l0,-4.389l0,-5.76l0,-39.12l-42.669,-24.636Z" style="fill:#ed4d07;fill-rule:nonzero;"/></g></g><g><clipPath id="_clip21"><rect x="389.109" y="338.408" width="97.594" height="169.042"/></clipPath><g clip-path="url(#_clip21)"><path d="M523.629,358.655l0,1.073l-36.926,21.32l-36.926,-21.319l0,-42.64l36.926,-21.319l36.926,21.32l0,41.565Zm-36.926,-69.516l-42.669,24.635l0,49.27l42.669,24.635l42.669,-24.636l0,-4.388l0,-5.76l0,-39.121l-42.669,-24.635Z" style="fill:#ed4d07;fill-rule:nonzero;"/><path d="M426.035,358.655l0,1.073l-36.926,21.32l-36.926,-21.319l0,-42.64l36.926,-21.319l36.926,21.32l0,41.565Zm-36.926,-69.516l-42.669,24.635l0,49.27l42.669,24.635l42.669,-24.636l0,-4.388l0,-5.76l0,-39.121l-42.669,-24.635Z" style="fill:#ed4d07;fill-rule:nonzero;"/></g></g><g><clipPath id="_clip22"><rect x="291.515" y="-168.704" width="97.594" height="169.037"/></clipPath><g clip-path="url(#_clip22)"><path d="M426.035,20.579l0,1.074l-36.926,21.319l-36.926,-21.319l0,-42.639l36.926,-21.319l36.926,21.319l0,41.565Zm-36.926,-69.515l-42.669,24.634l0,49.271l42.669,24.634l42.669,-24.635l0,-4.389l0,-5.76l0,-39.121l-42.669,-24.634Z" style="fill:#ed4d07;fill-rule:nonzero;"/><path d="M328.441,20.579l0,1.074l-36.926,21.319l-36.926,-21.319l0,-42.639l36.926,-21.319l36.926,21.319l0,41.565Zm-36.926,-69.515l-42.669,24.634l0,49.271l42.669,24.634l42.669,-24.635l0,-4.389l0,-5.76l0,-39.121l-42.669,-24.634Z" style="fill:#ed4d07;fill-rule:nonzero;"/></g></g><g><clipPath id="_clip23"><rect x="291.515" y="0.333" width="97.594" height="169.038"/></clipPath><g clip-path="url(#_clip23)"><path d="M426.035,189.617l0,1.073l-36.926,21.32l-36.926,-21.319l0,-42.639l36.926,-21.32l36.926,21.32l0,41.565Zm-36.926,-69.516l-42.669,24.635l0,49.27l42.669,24.635l42.669,-24.635l0,-4.389l0,-5.76l0,-39.12l-42.669,-24.636Z" style="fill:#ed4d07;fill-rule:nonzero;"/><path d="M328.441,189.617l0,1.073l-36.926,21.32l-36.926,-21.319l0,-42.639l36.926,-21.32l36.926,21.32l0,41.565Zm-36.926,-69.516l-42.669,24.635l0,49.27l42.669,24.635l42.669,-24.635l0,-4.389l0,-5.76l0,-39.12l-42.669,-24.636Z" style="fill:#ed4d07;fill-rule:nonzero;"/><path d="M377.238,105.098l0,1.074l-36.926,21.319l-36.926,-21.319l0,-42.639l36.926,-21.319l36.926,21.319l0,41.565Zm-36.926,-69.515l-42.669,24.634l0,49.27l42.669,24.635l42.669,-24.635l0,-4.389l0,-5.76l0,-39.12l-42.669,-24.635Z" style="fill:#ed4d07;fill-rule:nonzero;"/><path d="M426.035,20.579l0,1.074l-36.926,21.319l-36.926,-21.319l0,-42.639l36.926,-21.319l36.926,21.319l0,41.565Zm-36.926,-69.515l-42.669,24.634l0,49.271l42.669,24.634l42.669,-24.635l0,-4.389l0,-5.76l0,-39.121l-42.669,-24.634Z" style="fill:#ed4d07;fill-rule:nonzero;"/><path d="M328.441,20.579l0,1.074l-36.926,21.319l-36.926,-21.319l0,-42.639l36.926,-21.319l36.926,21.319l0,41.565Zm-36.926,-69.515l-42.669,24.634l0,49.271l42.669,24.634l42.669,-24.635l0,-4.389l0,-5.76l0,-39.121l-42.669,-24.634Z" style="fill:#ed4d07;fill-rule:nonzero;"/></g></g><g><clipPath id="_clip24"><rect x="291.515" y="169.371" width="97.594" height="169.037"/></clipPath><g clip-path="url(#_clip24)"><path d="M426.035,358.655l0,1.073l-36.926,21.32l-36.926,-21.319l0,-42.64l36.926,-21.319l36.926,21.32l0,41.565Zm-36.926,-69.516l-42.669,24.635l0,49.27l42.669,24.635l42.669,-24.636l0,-4.388l0,-5.76l0,-39.121l-42.669,-24.635Z" style="fill:#ed4d07;fill-rule:nonzero;"/><path d="M328.441,358.655l0,1.073l-36.926,21.32l-36.926,-21.319l0,-42.64l36.926,-21.319l36.926,21.32l0,41.565Zm-36.926,-69.516l-42.669,24.635l0,49.27l42.669,24.635l42.669,-24.636l0,-4.388l0,-5.76l0,-39.121l-42.669,-24.635Z" style="fill:#ed4d07;fill-rule:nonzero;"/><path d="M377.238,274.136l0,1.073l-36.926,21.32l-36.926,-21.319l0,-42.639l36.926,-21.32l36.926,21.32l0,41.565Zm-36.926,-69.516l-42.669,24.635l0,49.27l42.669,24.634l42.669,-24.634l0,-4.389l0,-5.76l0,-39.121l-42.669,-24.635Z" style="fill:#ed4d07;fill-rule:nonzero;"/><path d="M426.035,189.617l0,1.073l-36.926,21.32l-36.926,-21.319l0,-42.639l36.926,-21.32l36.926,21.32l0,41.565Zm-36.926,-69.516l-42.669,24.635l0,49.27l42.669,24.635l42.669,-24.635l0,-4.389l0,-5.76l0,-39.12l-42.669,-24.636Z" style="fill:#ed4d07;fill-rule:nonzero;"/><path d="M328.441,189.617l0,1.073l-36.926,21.32l-36.926,-21.319l0,-42.639l36.926,-21.32l36.926,21.32l0,41.565Zm-36.926,-69.516l-42.669,24.635l0,49.27l42.669,24.635l42.669,-24.635l0,-4.389l0,-5.76l0,-39.12l-42.669,-24.636Z" style="fill:#ed4d07;fill-rule:nonzero;"/></g></g><g><clipPath id="_clip25"><rect x="291.515" y="338.408" width="97.594" height="169.042"/></clipPath><g clip-path="url(#_clip25)"><path d="M426.035,358.655l0,1.073l-36.926,21.32l-36.926,-21.319l0,-42.64l36.926,-21.319l36.926,21.32l0,41.565Zm-36.926,-69.516l-42.669,24.635l0,49.27l42.669,24.635l42.669,-24.636l0,-4.388l0,-5.76l0,-39.121l-42.669,-24.635Z" style="fill:#ed4d07;fill-rule:nonzero;"/><path d="M328.441,358.655l0,1.073l-36.926,21.32l-36.926,-21.319l0,-42.64l36.926,-21.319l36.926,21.32l0,41.565Zm-36.926,-69.516l-42.669,24.635l0,49.27l42.669,24.635l42.669,-24.636l0,-4.388l0,-5.76l0,-39.121l-42.669,-24.635Z" style="fill:#ed4d07;fill-rule:nonzero;"/></g></g><g><clipPath id="_clip26"><rect x="193.921" y="-168.704" width="97.594" height="169.037"/></clipPath><g clip-path="url(#_clip26)"><path d="M328.441,20.579l0,1.074l-36.926,21.319l-36.926,-21.319l0,-42.639l36.926,-21.319l36.926,21.319l0,41.565Zm-36.926,-69.515l-42.669,24.634l0,49.271l42.669,24.634l42.669,-24.635l0,-4.389l0,-5.76l0,-39.121l-42.669,-24.634Z" style="fill:#ed4d07;fill-rule:nonzero;"/><path d="M230.848,20.579l0,1.074l-36.927,21.319l-36.926,-21.319l0,-42.639l36.926,-21.319l36.927,21.319l0,41.565Zm-36.927,-69.515l-42.669,24.634l0,49.271l42.669,24.634l42.669,-24.635l0,-4.389l0,-5.76l0,-39.121l-42.669,-24.634Z" style="fill:#ed4d07;fill-rule:nonzero;"/></g></g><g><clipPath id="_clip27"><rect x="193.921" y="0.333" width="97.594" height="169.038"/></clipPath><g clip-path="url(#_clip27)"><path d="M328.441,189.617l0,1.073l-36.926,21.32l-36.926,-21.319l0,-42.639l36.926,-21.32l36.926,21.32l0,41.565Zm-36.926,-69.516l-42.669,24.635l0,49.27l42.669,24.635l42.669,-24.635l0,-4.389l0,-5.76l0,-39.12l-42.669,-24.636Z" style="fill:#ed4d07;fill-rule:nonzero;"/><path d="M230.848,189.617l0,1.073l-36.927,21.32l-36.926,-21.319l0,-42.639l36.926,-21.32l36.927,21.32l0,41.565Zm-36.927,-69.516l-42.669,24.635l0,49.27l42.669,24.635l42.669,-24.635l0,-4.389l0,-5.76l0,-39.12l-42.669,-24.636Z" style="fill:#ed4d07;fill-rule:nonzero;"/><path d="M279.644,105.098l0,1.074l-36.926,21.319l-36.926,-21.319l0,-42.639l36.926,-21.319l36.926,21.319l0,41.565Zm-36.926,-69.515l-42.669,24.634l0,49.27l42.669,24.635l42.669,-24.635l0,-4.389l0,-5.76l0,-39.12l-42.669,-24.635Z" style="fill:#ed4d07;fill-rule:nonzero;"/><path d="M328.441,20.579l0,1.074l-36.926,21.319l-36.926,-21.319l0,-42.639l36.926,-21.319l36.926,21.319l0,41.565Zm-36.926,-69.515l-42.669,24.634l0,49.271l42.669,24.634l42.669,-24.635l0,-4.389l0,-5.76l0,-39.121l-42.669,-24.634Z" style="fill:#ed4d07;fill-rule:nonzero;"/><path d="M230.848,20.579l0,1.074l-36.927,21.319l-36.926,-21.319l0,-42.639l36.926,-21.319l36.927,21.319l0,41.565Zm-36.927,-69.515l-42.669,24.634l0,49.271l42.669,24.634l42.669,-24.635l0,-4.389l0,-5.76l0,-39.121l-42.669,-24.634Z" style="fill:#ed4d07;fill-rule:nonzero;"/></g></g><g><clipPath id="_clip28"><rect x="193.921" y="169.371" width="97.594" height="169.037"/></clipPath><g clip-path="url(#_clip28)"><path d="M328.441,358.655l0,1.073l-36.926,21.32l-36.926,-21.319l0,-42.64l36.926,-21.319l36.926,21.32l0,41.565Zm-36.926,-69.516l-42.669,24.635l0,49.27l42.669,24.635l42.669,-24.636l0,-4.388l0,-5.76l0,-39.121l-42.669,-24.635Z" style="fill:#ed4d07;fill-rule:nonzero;"/><path d="M230.848,358.655l0,1.073l-36.927,21.32l-36.926,-21.319l0,-42.64l36.926,-21.319l36.927,21.32l0,41.565Zm-36.927,-69.516l-42.669,24.635l0,49.27l42.669,24.635l42.669,-24.636l0,-4.388l0,-5.76l0,-39.121l-42.669,-24.635Z" style="fill:#ed4d07;fill-rule:nonzero;"/><path d="M279.644,274.136l0,1.073l-36.926,21.32l-36.926,-21.319l0,-42.639l36.926,-21.32l36.926,21.32l0,41.565Zm-36.926,-69.516l-42.669,24.635l0,49.27l42.669,24.634l42.669,-24.634l0,-4.389l0,-5.76l0,-39.121l-42.669,-24.635Z" style="fill:#ed4d07;fill-rule:nonzero;"/><path d="M328.441,189.617l0,1.073l-36.926,21.32l-36.926,-21.319l0,-42.639l36.926,-21.32l36.926,21.32l0,41.565Zm-36.926,-69.516l-42.669,24.635l0,49.27l42.669,24.635l42.669,-24.635l0,-4.389l0,-5.76l0,-39.12l-42.669,-24.636Z" style="fill:#ed4d07;fill-rule:nonzero;"/><path d="M230.848,189.617l0,1.073l-36.927,21.32l-36.926,-21.319l0,-42.639l36.926,-21.32l36.927,21.32l0,41.565Zm-36.927,-69.516l-42.669,24.635l0,49.27l42.669,24.635l42.669,-24.635l0,-4.389l0,-5.76l0,-39.12l-42.669,-24.636Z" style="fill:#ed4d07;fill-rule:nonzero;"/></g></g><g><clipPath id="_clip29"><rect x="193.921" y="338.408" width="97.594" height="169.042"/></clipPath><g clip-path="url(#_clip29)"><path d="M328.441,358.655l0,1.073l-36.926,21.32l-36.926,-21.319l0,-42.64l36.926,-21.319l36.926,21.32l0,41.565Zm-36.926,-69.516l-42.669,24.635l0,49.27l42.669,24.635l42.669,-24.636l0,-4.388l0,-5.76l0,-39.121l-42.669,-24.635Z" style="fill:#ed4d07;fill-rule:nonzero;"/><path d="M230.848,358.655l0,1.073l-36.927,21.32l-36.926,-21.319l0,-42.64l36.926,-21.319l36.927,21.32l0,41.565Zm-36.927,-69.516l-42.669,24.635l0,49.27l42.669,24.635l42.669,-24.636l0,-4.388l0,-5.76l0,-39.121l-42.669,-24.635Z" style="fill:#ed4d07;fill-rule:nonzero;"/></g></g><g><clipPath id="_clip30"><rect x="96.327" y="-168.704" width="97.594" height="169.037"/></clipPath><g clip-path="url(#_clip30)"><path d="M230.848,20.579l0,1.074l-36.927,21.319l-36.926,-21.319l0,-42.639l36.926,-21.319l36.927,21.319l0,41.565Zm-36.927,-69.515l-42.669,24.634l0,49.271l42.669,24.634l42.669,-24.635l0,-4.389l0,-5.76l0,-39.121l-42.669,-24.634Z" style="fill:#ed4d07;fill-rule:nonzero;"/><path d="M133.253,20.579l0,1.074l-36.926,21.319l-36.927,-21.319l0,-42.639l36.927,-21.319l36.926,21.319l0,41.565Zm-36.926,-69.515l-42.669,24.634l0,49.271l42.669,24.634l42.669,-24.635l0,-4.389l0,-5.76l0,-39.121l-42.669,-24.634Z" style="fill:#ed4d07;fill-rule:nonzero;"/></g></g><g><clipPath id="_clip31"><rect x="96.327" y="0.333" width="97.594" height="169.038"/></clipPath><g clip-path="url(#_clip31)"><path d="M230.848,189.617l0,1.073l-36.927,21.32l-36.926,-21.319l0,-42.639l36.926,-21.32l36.927,21.32l0,41.565Zm-36.927,-69.516l-42.669,24.635l0,49.27l42.669,24.635l42.669,-24.635l0,-4.389l0,-5.76l0,-39.12l-42.669,-24.636Z" style="fill:#ed4d07;fill-rule:nonzero;"/><path d="M133.253,189.617l0,1.073l-36.926,21.32l-36.927,-21.319l0,-42.639l36.927,-21.32l36.926,21.32l0,41.565Zm-36.926,-69.516l-42.669,24.635l0,49.27l42.669,24.635l42.669,-24.635l0,-4.389l0,-5.76l0,-39.12l-42.669,-24.636Z" style="fill:#ed4d07;fill-rule:nonzero;"/><path d="M182.05,105.098l0,1.074l-36.926,21.319l-36.926,-21.319l0,-42.639l36.926,-21.319l36.926,21.319l0,41.565Zm-36.926,-69.515l-42.669,24.634l0,49.27l42.669,24.635l42.669,-24.635l0,-4.389l0,-5.76l0,-39.12l-42.669,-24.635Z" style="fill:#ed4d07;fill-rule:nonzero;"/><path d="M230.848,20.579l0,1.074l-36.927,21.319l-36.926,-21.319l0,-42.639l36.926,-21.319l36.927,21.319l0,41.565Zm-36.927,-69.515l-42.669,24.634l0,49.271l42.669,24.634l42.669,-24.635l0,-4.389l0,-5.76l0,-39.121l-42.669,-24.634Z" style="fill:#ed4d07;fill-rule:nonzero;"/><path d="M133.253,20.579l0,1.074l-36.926,21.319l-36.927,-21.319l0,-42.639l36.927,-21.319l36.926,21.319l0,41.565Zm-36.926,-69.515l-42.669,24.634l0,49.271l42.669,24.634l42.669,-24.635l0,-4.389l0,-5.76l0,-39.121l-42.669,-24.634Z" style="fill:#ed4d07;fill-rule:nonzero;"/></g></g><g><clipPath id="_clip32"><rect x="96.327" y="169.371" width="97.594" height="169.037"/></clipPath><g clip-path="url(#_clip32)"><path d="M230.848,358.655l0,1.073l-36.927,21.32l-36.926,-21.319l0,-42.64l36.926,-21.319l36.927,21.32l0,41.565Zm-36.927,-69.516l-42.669,24.635l0,49.27l42.669,24.635l42.669,-24.636l0,-4.388l0,-5.76l0,-39.121l-42.669,-24.635Z" style="fill:#ed4d07;fill-rule:nonzero;"/><path d="M133.253,358.655l0,1.073l-36.926,21.32l-36.927,-21.319l0,-42.64l36.927,-21.319l36.926,21.32l0,41.565Zm-36.926,-69.516l-42.669,24.635l0,49.27l42.669,24.635l42.669,-24.636l0,-4.388l0,-5.76l0,-39.121l-42.669,-24.635Z" style="fill:#ed4d07;fill-rule:nonzero;"/><path d="M182.05,274.136l0,1.073l-36.926,21.32l-36.926,-21.319l0,-42.639l36.926,-21.32l36.926,21.32l0,41.565Zm-36.926,-69.516l-42.669,24.635l0,49.27l42.669,24.634l42.669,-24.634l0,-4.389l0,-5.76l0,-39.121l-42.669,-24.635Z" style="fill:#ed4d07;fill-rule:nonzero;"/><path d="M230.848,189.617l0,1.073l-36.927,21.32l-36.926,-21.319l0,-42.639l36.926,-21.32l36.927,21.32l0,41.565Zm-36.927,-69.516l-42.669,24.635l0,49.27l42.669,24.635l42.669,-24.635l0,-4.389l0,-5.76l0,-39.12l-42.669,-24.636Z" style="fill:#ed4d07;fill-rule:nonzero;"/><path d="M133.253,189.617l0,1.073l-36.926,21.32l-36.927,-21.319l0,-42.639l36.927,-21.32l36.926,21.32l0,41.565Zm-36.926,-69.516l-42.669,24.635l0,49.27l42.669,24.635l42.669,-24.635l0,-4.389l0,-5.76l0,-39.12l-42.669,-24.636Z" style="fill:#ed4d07;fill-rule:nonzero;"/></g></g><g><clipPath id="_clip33"><rect x="96.327" y="338.408" width="97.594" height="169.042"/></clipPath><g clip-path="url(#_clip33)"><path d="M230.848,358.655l0,1.073l-36.927,21.32l-36.926,-21.319l0,-42.64l36.926,-21.319l36.927,21.32l0,41.565Zm-36.927,-69.516l-42.669,24.635l0,49.27l42.669,24.635l42.669,-24.636l0,-4.388l0,-5.76l0,-39.121l-42.669,-24.635Z" style="fill:#ed4d07;fill-rule:nonzero;"/><path d="M133.253,358.655l0,1.073l-36.926,21.32l-36.927,-21.319l0,-42.64l36.927,-21.319l36.926,21.32l0,41.565Zm-36.926,-69.516l-42.669,24.635l0,49.27l42.669,24.635l42.669,-24.636l0,-4.388l0,-5.76l0,-39.121l-42.669,-24.635Z" style="fill:#ed4d07;fill-rule:nonzero;"/></g></g><g><clipPath id="_clip34"><rect x="-1.267" y="-168.704" width="97.594" height="169.037"/></clipPath><g clip-path="url(#_clip34)"><path d="M133.253,20.579l0,1.074l-36.926,21.319l-36.927,-21.319l0,-42.639l36.927,-21.319l36.926,21.319l0,41.565Zm-36.926,-69.515l-42.669,24.634l0,49.271l42.669,24.634l42.669,-24.635l0,-4.389l0,-5.76l0,-39.121l-42.669,-24.634Z" style="fill:#ed4d07;fill-rule:nonzero;"/></g></g><g><clipPath id="_clip35"><rect x="-1.267" y="0.333" width="97.594" height="169.038"/></clipPath><g clip-path="url(#_clip35)"><path d="M133.253,189.617l0,1.073l-36.926,21.32l-36.927,-21.319l0,-42.639l36.927,-21.32l36.926,21.32l0,41.565Zm-36.926,-69.516l-42.669,24.635l0,49.27l42.669,24.635l42.669,-24.635l0,-4.389l0,-5.76l0,-39.12l-42.669,-24.636Z" style="fill:#ed4d07;fill-rule:nonzero;"/><path d="M84.456,105.098l0,1.074l-36.926,21.319l-36.927,-21.319l0,-42.639l36.927,-21.319l36.926,21.319l0,41.565Zm-36.926,-69.515l-42.669,24.634l0,49.27l42.669,24.635l42.668,-24.635l0,-4.389l0,-5.76l0,-39.12l-42.668,-24.635Z" style="fill:#ed4d07;fill-rule:nonzero;"/><path d="M133.253,20.579l0,1.074l-36.926,21.319l-36.927,-21.319l0,-42.639l36.927,-21.319l36.926,21.319l0,41.565Zm-36.926,-69.515l-42.669,24.634l0,49.271l42.669,24.634l42.669,-24.635l0,-4.389l0,-5.76l0,-39.121l-42.669,-24.634Z" style="fill:#ed4d07;fill-rule:nonzero;"/></g></g><g><clipPath id="_clip36"><rect x="-1.267" y="169.371" width="97.594" height="169.037"/></clipPath><g clip-path="url(#_clip36)"><path d="M133.253,358.655l0,1.073l-36.926,21.32l-36.927,-21.319l0,-42.64l36.927,-21.319l36.926,21.32l0,41.565Zm-36.926,-69.516l-42.669,24.635l0,49.27l42.669,24.635l42.669,-24.636l0,-4.388l0,-5.76l0,-39.121l-42.669,-24.635Z" style="fill:#ed4d07;fill-rule:nonzero;"/><path d="M84.456,274.136l0,1.073l-36.926,21.32l-36.927,-21.319l0,-42.639l36.927,-21.32l36.926,21.32l0,41.565Zm-36.926,-69.516l-42.669,24.635l0,49.27l42.669,24.634l42.668,-24.634l0,-4.389l0,-5.76l0,-39.121l-42.668,-24.635Z" style="fill:#ed4d07;fill-rule:nonzero;"/><path d="M133.253,189.617l0,1.073l-36.926,21.32l-36.927,-21.319l0,-42.639l36.927,-21.32l36.926,21.32l0,41.565Zm-36.926,-69.516l-42.669,24.635l0,49.27l42.669,24.635l42.669,-24.635l0,-4.389l0,-5.76l0,-39.12l-42.669,-24.636Z" style="fill:#ed4d07;fill-rule:nonzero;"/></g></g><g><clipPath id="_clip37"><rect x="-1.267" y="338.408" width="97.594" height="169.042"/></clipPath><g clip-path="url(#_clip37)"><path d="M133.253,358.655l0,1.073l-36.926,21.32l-36.927,-21.319l0,-42.64l36.927,-21.319l36.926,21.32l0,41.565Zm-36.926,-69.516l-42.669,24.635l0,49.27l42.669,24.635l42.669,-24.636l0,-4.388l0,-5.76l0,-39.121l-42.669,-24.635Z" style="fill:#ed4d07;fill-rule:nonzero;"/></g></g></g></g></svg>