<?xml version="1.0" encoding="utf-8"?>
<!-- Generator: Adobe Illustrator 23.0.4, SVG Export Plug-In . SVG Version: 6.00 Build 0)  -->
<svg version="1.1" id="Layer_1" xmlns:serif="http://www.serif.com/"
	 xmlns="http://www.w3.org/2000/svg" xmlns:xlink="http://www.w3.org/1999/xlink" x="0px" y="0px" viewBox="0 0 400 400"
	 style="enable-background:new 0 0 400 400;" xml:space="preserve">
<style type="text/css">
	.st0{clip-path:url(#SVGID_2_);fill:none;}
	.st1{clip-path:url(#SVGID_2_);}
	.st2{clip-path:url(#SVGID_4_);}
	.st3{fill:#3A3C3E;}
	.st4{clip-path:url(#SVGID_6_);}
	.st5{clip-path:url(#SVGID_8_);}
	.st6{clip-path:url(#SVGID_10_);}
	.st7{clip-path:url(#SVGID_12_);}
	.st8{clip-path:url(#SVGID_14_);}
	.st9{clip-path:url(#SVGID_16_);}
	.st10{clip-path:url(#SVGID_18_);}
	.st11{clip-path:url(#SVGID_20_);}
	.st12{clip-path:url(#SVGID_22_);}
	.st13{clip-path:url(#SVGID_24_);}
	.st14{clip-path:url(#SVGID_26_);}
	.st15{clip-path:url(#SVGID_28_);}
	.st16{clip-path:url(#SVGID_30_);}
	.st17{clip-path:url(#SVGID_32_);}
	.st18{clip-path:url(#SVGID_34_);}
	.st19{clip-path:url(#SVGID_36_);}
	.st20{clip-path:url(#SVGID_38_);}
	.st21{clip-path:url(#SVGID_40_);}
	.st22{clip-path:url(#SVGID_42_);}
	.st23{clip-path:url(#SVGID_44_);}
	.st24{clip-path:url(#SVGID_46_);}
	.st25{clip-path:url(#SVGID_48_);}
	.st26{clip-path:url(#SVGID_50_);}
	.st27{clip-path:url(#SVGID_52_);}
	.st28{clip-path:url(#SVGID_54_);}
	.st29{clip-path:url(#SVGID_56_);}
	.st30{clip-path:url(#SVGID_58_);}
	.st31{clip-path:url(#SVGID_60_);}
	.st32{clip-path:url(#SVGID_62_);}
	.st33{clip-path:url(#SVGID_64_);}
	.st34{clip-path:url(#SVGID_66_);}
	.st35{clip-path:url(#SVGID_68_);}
	.st36{clip-path:url(#SVGID_70_);}
	.st37{clip-path:url(#SVGID_72_);}
	.st38{clip-path:url(#SVGID_74_);}
</style>
<g>
	<defs>
		<rect id="SVGID_1_" y="118.21" width="399.56" height="163.29"/>
	</defs>
	<clipPath id="SVGID_2_">
		<use xlink:href="#SVGID_1_"  style="overflow:visible;"/>
	</clipPath>
	<rect id="Artboard1" y="118.21" class="st0" width="399.56" height="163.29"/>
	<rect y="118.21" class="st0" width="399.56" height="163.29"/>
	<g class="st1">
		<g>
			<g>
				<defs>
					<rect id="SVGID_3_" x="376.11" y="36.81" width="47.09" height="81.56"/>
				</defs>
				<clipPath id="SVGID_4_">
					<use xlink:href="#SVGID_3_"  style="overflow:visible;"/>
				</clipPath>
				<g class="st2">
					<path class="st3" d="M393.93,128.14v0.52l-17.82,10.29l-17.82-10.29v-20.57l17.82-10.29l17.82,10.29
						C393.93,108.09,393.93,128.14,393.93,128.14z M376.11,94.6l-20.59,11.89v23.77l20.59,11.89l20.59-11.89v-2.12v-2.78v-18.88
						L376.11,94.6z"/>
				</g>
			</g>
		</g>
		<g>
			<g>
				<defs>
					<rect id="SVGID_5_" x="376.11" y="118.38" width="47.09" height="81.56"/>
				</defs>
				<clipPath id="SVGID_6_">
					<use xlink:href="#SVGID_5_"  style="overflow:visible;"/>
				</clipPath>
				<g class="st4">
					<path class="st3" d="M393.93,209.71v0.52l-17.82,10.29l-17.82-10.29v-20.57l17.82-10.29l17.82,10.29V209.71z M376.11,176.16
						l-20.59,11.89v23.77l20.59,11.89l20.59-11.89v-2.12v-2.78v-18.88C396.7,188.05,376.11,176.16,376.11,176.16z"/>
					<path class="st3" d="M417.47,168.93v0.52l-17.82,10.29l-17.82-10.29v-20.57l17.82-10.29l17.82,10.29
						C417.47,148.87,417.47,168.93,417.47,168.93z M399.65,135.38l-20.59,11.89v23.77l20.59,11.89l20.59-11.89v-2.12v-2.78v-18.88
						C420.24,147.27,399.65,135.38,399.65,135.38z"/>
					<path class="st3" d="M393.93,128.14v0.52l-17.82,10.29l-17.82-10.29v-20.57l17.82-10.29l17.82,10.29
						C393.93,108.09,393.93,128.14,393.93,128.14z M376.11,94.6l-20.59,11.89v23.77l20.59,11.89l20.59-11.89v-2.12v-2.78v-18.88
						L376.11,94.6z"/>
				</g>
			</g>
		</g>
		<g>
			<g>
				<defs>
					<rect id="SVGID_7_" x="376.11" y="199.94" width="47.09" height="81.56"/>
				</defs>
				<clipPath id="SVGID_8_">
					<use xlink:href="#SVGID_7_"  style="overflow:visible;"/>
				</clipPath>
				<g class="st5">
					<path class="st3" d="M393.93,291.27v0.52l-17.82,10.29l-17.82-10.29v-20.57l17.82-10.29l17.82,10.29V291.27z M376.11,257.73
						l-20.59,11.89v23.77l20.59,11.89l20.59-11.89v-2.12v-2.78v-18.88L376.11,257.73z"/>
					<path class="st3" d="M417.47,250.49v0.52l-17.82,10.29l-17.82-10.29v-20.57l17.82-10.29l17.82,10.29V250.49z M399.65,216.95
						l-20.59,11.89v23.77l20.59,11.89l20.59-11.89v-2.12v-2.78v-18.88C420.24,228.83,399.65,216.95,399.65,216.95z"/>
					<path class="st3" d="M393.93,209.71v0.52l-17.82,10.29l-17.82-10.29v-20.57l17.82-10.29l17.82,10.29V209.71z M376.11,176.16
						l-20.59,11.89v23.77l20.59,11.89l20.59-11.89v-2.12v-2.78v-18.88C396.7,188.05,376.11,176.16,376.11,176.16z"/>
				</g>
			</g>
		</g>
		<g>
			<g>
				<defs>
					<rect id="SVGID_9_" x="376.11" y="281.5" width="47.09" height="81.56"/>
				</defs>
				<clipPath id="SVGID_10_">
					<use xlink:href="#SVGID_9_"  style="overflow:visible;"/>
				</clipPath>
				<g class="st6">
					<path class="st3" d="M393.93,291.27v0.52l-17.82,10.29l-17.82-10.29v-20.57l17.82-10.29l17.82,10.29V291.27z M376.11,257.73
						l-20.59,11.89v23.77l20.59,11.89l20.59-11.89v-2.12v-2.78v-18.88L376.11,257.73z"/>
				</g>
			</g>
		</g>
		<g>
			<g>
				<defs>
					<rect id="SVGID_11_" x="329.02" y="36.81" width="47.09" height="81.56"/>
				</defs>
				<clipPath id="SVGID_12_">
					<use xlink:href="#SVGID_11_"  style="overflow:visible;"/>
				</clipPath>
				<g class="st7">
					<path class="st3" d="M393.93,128.14v0.52l-17.82,10.29l-17.82-10.29v-20.57l17.82-10.29l17.82,10.29
						C393.93,108.09,393.93,128.14,393.93,128.14z M376.11,94.6l-20.59,11.89v23.77l20.59,11.89l20.59-11.89v-2.12v-2.78v-18.88
						L376.11,94.6z"/>
					<path class="st3" d="M346.84,128.14v0.52l-17.82,10.29l-17.82-10.29v-20.57l17.82-10.29l17.82,10.29
						C346.84,108.09,346.84,128.14,346.84,128.14z M329.02,94.6l-20.59,11.89v23.77l20.59,11.89l20.59-11.89v-2.12v-2.78v-18.88
						L329.02,94.6z"/>
				</g>
			</g>
		</g>
		<g>
			<g>
				<defs>
					<rect id="SVGID_13_" x="329.02" y="118.38" width="47.09" height="81.56"/>
				</defs>
				<clipPath id="SVGID_14_">
					<use xlink:href="#SVGID_13_"  style="overflow:visible;"/>
				</clipPath>
				<g class="st8">
					<path class="st3" d="M393.93,209.71v0.52l-17.82,10.29l-17.82-10.29v-20.57l17.82-10.29l17.82,10.29V209.71z M376.11,176.16
						l-20.59,11.89v23.77l20.59,11.89l20.59-11.89v-2.12v-2.78v-18.88C396.7,188.05,376.11,176.16,376.11,176.16z"/>
					<path class="st3" d="M346.84,209.71v0.52l-17.82,10.29l-17.82-10.29v-20.57l17.82-10.29l17.82,10.29V209.71z M329.02,176.16
						l-20.59,11.89v23.77l20.59,11.89l20.59-11.89v-2.12v-2.78v-18.88C349.61,188.05,329.02,176.16,329.02,176.16z"/>
					<path class="st3" d="M370.38,168.93v0.52l-17.82,10.29l-17.82-10.29v-20.57l17.82-10.29l17.82,10.29
						C370.38,148.87,370.38,168.93,370.38,168.93z M352.56,135.38l-20.59,11.89v23.77l20.59,11.89l20.59-11.89v-2.12v-2.78v-18.88
						C373.15,147.27,352.56,135.38,352.56,135.38z"/>
					<path class="st3" d="M393.93,128.14v0.52l-17.82,10.29l-17.82-10.29v-20.57l17.82-10.29l17.82,10.29
						C393.93,108.09,393.93,128.14,393.93,128.14z M376.11,94.6l-20.59,11.89v23.77l20.59,11.89l20.59-11.89v-2.12v-2.78v-18.88
						L376.11,94.6z"/>
					<path class="st3" d="M346.84,128.14v0.52l-17.82,10.29l-17.82-10.29v-20.57l17.82-10.29l17.82,10.29
						C346.84,108.09,346.84,128.14,346.84,128.14z M329.02,94.6l-20.59,11.89v23.77l20.59,11.89l20.59-11.89v-2.12v-2.78v-18.88
						L329.02,94.6z"/>
				</g>
			</g>
		</g>
		<g>
			<g>
				<defs>
					<rect id="SVGID_15_" x="329.02" y="199.94" width="47.09" height="81.56"/>
				</defs>
				<clipPath id="SVGID_16_">
					<use xlink:href="#SVGID_15_"  style="overflow:visible;"/>
				</clipPath>
				<g class="st9">
					<path class="st3" d="M393.93,291.27v0.52l-17.82,10.29l-17.82-10.29v-20.57l17.82-10.29l17.82,10.29V291.27z M376.11,257.73
						l-20.59,11.89v23.77l20.59,11.89l20.59-11.89v-2.12v-2.78v-18.88L376.11,257.73z"/>
					<path class="st3" d="M346.84,291.27v0.52l-17.82,10.29l-17.82-10.29v-20.57l17.82-10.29l17.82,10.29V291.27z M329.02,257.73
						l-20.59,11.89v23.77l20.59,11.89l20.59-11.89v-2.12v-2.78v-18.88L329.02,257.73z"/>
					<path class="st3" d="M370.38,250.49v0.52l-17.82,10.29l-17.82-10.29v-20.57l17.82-10.29l17.82,10.29V250.49z M352.56,216.95
						l-20.59,11.89v23.77l20.59,11.89l20.59-11.89v-2.12v-2.78v-18.88C373.15,228.83,352.56,216.95,352.56,216.95z"/>
					<path class="st3" d="M393.93,209.71v0.52l-17.82,10.29l-17.82-10.29v-20.57l17.82-10.29l17.82,10.29V209.71z M376.11,176.16
						l-20.59,11.89v23.77l20.59,11.89l20.59-11.89v-2.12v-2.78v-18.88C396.7,188.05,376.11,176.16,376.11,176.16z"/>
					<path class="st3" d="M346.84,209.71v0.52l-17.82,10.29l-17.82-10.29v-20.57l17.82-10.29l17.82,10.29V209.71z M329.02,176.16
						l-20.59,11.89v23.77l20.59,11.89l20.59-11.89v-2.12v-2.78v-18.88C349.61,188.05,329.02,176.16,329.02,176.16z"/>
				</g>
			</g>
		</g>
		<g>
			<g>
				<defs>
					<rect id="SVGID_17_" x="329.02" y="281.5" width="47.09" height="81.56"/>
				</defs>
				<clipPath id="SVGID_18_">
					<use xlink:href="#SVGID_17_"  style="overflow:visible;"/>
				</clipPath>
				<g class="st10">
					<path class="st3" d="M393.93,291.27v0.52l-17.82,10.29l-17.82-10.29v-20.57l17.82-10.29l17.82,10.29V291.27z M376.11,257.73
						l-20.59,11.89v23.77l20.59,11.89l20.59-11.89v-2.12v-2.78v-18.88L376.11,257.73z"/>
					<path class="st3" d="M346.84,291.27v0.52l-17.82,10.29l-17.82-10.29v-20.57l17.82-10.29l17.82,10.29V291.27z M329.02,257.73
						l-20.59,11.89v23.77l20.59,11.89l20.59-11.89v-2.12v-2.78v-18.88L329.02,257.73z"/>
				</g>
			</g>
		</g>
		<g>
			<g>
				<defs>
					<rect id="SVGID_19_" x="281.93" y="36.81" width="47.09" height="81.56"/>
				</defs>
				<clipPath id="SVGID_20_">
					<use xlink:href="#SVGID_19_"  style="overflow:visible;"/>
				</clipPath>
				<g class="st11">
					<path class="st3" d="M346.84,128.14v0.52l-17.82,10.29l-17.82-10.29v-20.57l17.82-10.29l17.82,10.29
						C346.84,108.09,346.84,128.14,346.84,128.14z M329.02,94.6l-20.59,11.89v23.77l20.59,11.89l20.59-11.89v-2.12v-2.78v-18.88
						L329.02,94.6z"/>
					<path class="st3" d="M299.75,128.14v0.52l-17.82,10.29l-17.82-10.29v-20.57l17.82-10.29l17.82,10.29
						C299.75,108.09,299.75,128.14,299.75,128.14z M281.93,94.6l-20.59,11.89v23.77l20.59,11.89l20.59-11.89v-2.12v-2.78v-18.88
						L281.93,94.6z"/>
				</g>
			</g>
		</g>
		<g>
			<g>
				<defs>
					<rect id="SVGID_21_" x="281.93" y="118.38" width="47.09" height="81.56"/>
				</defs>
				<clipPath id="SVGID_22_">
					<use xlink:href="#SVGID_21_"  style="overflow:visible;"/>
				</clipPath>
				<g class="st12">
					<path class="st3" d="M346.84,209.71v0.52l-17.82,10.29l-17.82-10.29v-20.57l17.82-10.29l17.82,10.29V209.71z M329.02,176.16
						l-20.59,11.89v23.77l20.59,11.89l20.59-11.89v-2.12v-2.78v-18.88C349.61,188.05,329.02,176.16,329.02,176.16z"/>
					<path class="st3" d="M299.75,209.71v0.52l-17.82,10.29l-17.82-10.29v-20.57l17.82-10.29l17.82,10.29V209.71z M281.93,176.16
						l-20.59,11.89v23.77l20.59,11.89l20.59-11.89v-2.12v-2.78v-18.88C302.52,188.05,281.93,176.16,281.93,176.16z"/>
					<path class="st3" d="M323.29,168.93v0.52l-17.82,10.29l-17.82-10.29v-20.57l17.82-10.29l17.82,10.29
						C323.29,148.87,323.29,168.93,323.29,168.93z M305.47,135.38l-20.59,11.89v23.77l20.59,11.89l20.59-11.89v-2.12v-2.78v-18.88
						C326.06,147.27,305.47,135.38,305.47,135.38z"/>
					<path class="st3" d="M346.84,128.14v0.52l-17.82,10.29l-17.82-10.29v-20.57l17.82-10.29l17.82,10.29
						C346.84,108.09,346.84,128.14,346.84,128.14z M329.02,94.6l-20.59,11.89v23.77l20.59,11.89l20.59-11.89v-2.12v-2.78v-18.88
						L329.02,94.6z"/>
					<path class="st3" d="M299.75,128.14v0.52l-17.82,10.29l-17.82-10.29v-20.57l17.82-10.29l17.82,10.29
						C299.75,108.09,299.75,128.14,299.75,128.14z M281.93,94.6l-20.59,11.89v23.77l20.59,11.89l20.59-11.89v-2.12v-2.78v-18.88
						L281.93,94.6z"/>
				</g>
			</g>
		</g>
		<g>
			<g>
				<defs>
					<rect id="SVGID_23_" x="281.93" y="199.94" width="47.09" height="81.56"/>
				</defs>
				<clipPath id="SVGID_24_">
					<use xlink:href="#SVGID_23_"  style="overflow:visible;"/>
				</clipPath>
				<g class="st13">
					<path class="st3" d="M346.84,291.27v0.52l-17.82,10.29l-17.82-10.29v-20.57l17.82-10.29l17.82,10.29V291.27z M329.02,257.73
						l-20.59,11.89v23.77l20.59,11.89l20.59-11.89v-2.12v-2.78v-18.88L329.02,257.73z"/>
					<path class="st3" d="M299.75,291.27v0.52l-17.82,10.29l-17.82-10.29v-20.57l17.82-10.29l17.82,10.29V291.27z M281.93,257.73
						l-20.59,11.89v23.77l20.59,11.89l20.59-11.89v-2.12v-2.78v-18.88L281.93,257.73z"/>
					<path class="st3" d="M323.29,250.49v0.52l-17.82,10.29l-17.82-10.29v-20.57l17.82-10.29l17.82,10.29V250.49z M305.47,216.95
						l-20.59,11.89v23.77l20.59,11.89l20.59-11.89v-2.12v-2.78v-18.88C326.06,228.83,305.47,216.95,305.47,216.95z"/>
					<path class="st3" d="M346.84,209.71v0.52l-17.82,10.29l-17.82-10.29v-20.57l17.82-10.29l17.82,10.29V209.71z M329.02,176.16
						l-20.59,11.89v23.77l20.59,11.89l20.59-11.89v-2.12v-2.78v-18.88C349.61,188.05,329.02,176.16,329.02,176.16z"/>
					<path class="st3" d="M299.75,209.71v0.52l-17.82,10.29l-17.82-10.29v-20.57l17.82-10.29l17.82,10.29V209.71z M281.93,176.16
						l-20.59,11.89v23.77l20.59,11.89l20.59-11.89v-2.12v-2.78v-18.88C302.52,188.05,281.93,176.16,281.93,176.16z"/>
				</g>
			</g>
		</g>
		<g>
			<g>
				<defs>
					<rect id="SVGID_25_" x="281.93" y="281.5" width="47.09" height="81.56"/>
				</defs>
				<clipPath id="SVGID_26_">
					<use xlink:href="#SVGID_25_"  style="overflow:visible;"/>
				</clipPath>
				<g class="st14">
					<path class="st3" d="M346.84,291.27v0.52l-17.82,10.29l-17.82-10.29v-20.57l17.82-10.29l17.82,10.29V291.27z M329.02,257.73
						l-20.59,11.89v23.77l20.59,11.89l20.59-11.89v-2.12v-2.78v-18.88L329.02,257.73z"/>
					<path class="st3" d="M299.75,291.27v0.52l-17.82,10.29l-17.82-10.29v-20.57l17.82-10.29l17.82,10.29V291.27z M281.93,257.73
						l-20.59,11.89v23.77l20.59,11.89l20.59-11.89v-2.12v-2.78v-18.88L281.93,257.73z"/>
				</g>
			</g>
		</g>
		<g>
			<g>
				<defs>
					<rect id="SVGID_27_" x="234.84" y="36.81" width="47.09" height="81.56"/>
				</defs>
				<clipPath id="SVGID_28_">
					<use xlink:href="#SVGID_27_"  style="overflow:visible;"/>
				</clipPath>
				<g class="st15">
					<path class="st3" d="M299.75,128.14v0.52l-17.82,10.29l-17.82-10.29v-20.57l17.82-10.29l17.82,10.29
						C299.75,108.09,299.75,128.14,299.75,128.14z M281.93,94.6l-20.59,11.89v23.77l20.59,11.89l20.59-11.89v-2.12v-2.78v-18.88
						L281.93,94.6z"/>
					<path class="st3" d="M252.66,128.14v0.52l-17.82,10.29l-17.82-10.29v-20.57l17.82-10.29l17.82,10.29
						C252.66,108.09,252.66,128.14,252.66,128.14z M234.84,94.6l-20.59,11.89v23.77l20.59,11.89l20.59-11.89v-2.12v-2.78v-18.88
						L234.84,94.6L234.84,94.6z"/>
				</g>
			</g>
		</g>
		<g>
			<g>
				<defs>
					<rect id="SVGID_29_" x="234.84" y="118.38" width="47.09" height="81.56"/>
				</defs>
				<clipPath id="SVGID_30_">
					<use xlink:href="#SVGID_29_"  style="overflow:visible;"/>
				</clipPath>
				<g class="st16">
					<path class="st3" d="M299.75,209.71v0.52l-17.82,10.29l-17.82-10.29v-20.57l17.82-10.29l17.82,10.29V209.71z M281.93,176.16
						l-20.59,11.89v23.77l20.59,11.89l20.59-11.89v-2.12v-2.78v-18.88C302.52,188.05,281.93,176.16,281.93,176.16z"/>
					<path class="st3" d="M252.66,209.71v0.52l-17.82,10.29l-17.82-10.29v-20.57l17.82-10.29l17.82,10.29V209.71z M234.84,176.16
						l-20.59,11.89v23.77l20.59,11.89l20.59-11.89v-2.12v-2.78v-18.88L234.84,176.16L234.84,176.16z"/>
					<path class="st3" d="M276.2,168.93v0.52l-17.82,10.29l-17.82-10.29v-20.57l17.82-10.29l17.82,10.29
						C276.2,148.87,276.2,168.93,276.2,168.93z M258.38,135.38l-20.59,11.89v23.77l20.59,11.89l20.59-11.89v-2.12v-2.78v-18.88
						C278.97,147.27,258.38,135.38,258.38,135.38z"/>
					<path class="st3" d="M299.75,128.14v0.52l-17.82,10.29l-17.82-10.29v-20.57l17.82-10.29l17.82,10.29
						C299.75,108.09,299.75,128.14,299.75,128.14z M281.93,94.6l-20.59,11.89v23.77l20.59,11.89l20.59-11.89v-2.12v-2.78v-18.88
						L281.93,94.6z"/>
					<path class="st3" d="M252.66,128.14v0.52l-17.82,10.29l-17.82-10.29v-20.57l17.82-10.29l17.82,10.29
						C252.66,108.09,252.66,128.14,252.66,128.14z M234.84,94.6l-20.59,11.89v23.77l20.59,11.89l20.59-11.89v-2.12v-2.78v-18.88
						L234.84,94.6L234.84,94.6z"/>
				</g>
			</g>
		</g>
		<g>
			<g>
				<defs>
					<rect id="SVGID_31_" x="234.84" y="199.94" width="47.09" height="81.56"/>
				</defs>
				<clipPath id="SVGID_32_">
					<use xlink:href="#SVGID_31_"  style="overflow:visible;"/>
				</clipPath>
				<g class="st17">
					<path class="st3" d="M299.75,291.27v0.52l-17.82,10.29l-17.82-10.29v-20.57l17.82-10.29l17.82,10.29V291.27z M281.93,257.73
						l-20.59,11.89v23.77l20.59,11.89l20.59-11.89v-2.12v-2.78v-18.88L281.93,257.73z"/>
					<path class="st3" d="M252.66,291.27v0.52l-17.82,10.29l-17.82-10.29v-20.57l17.82-10.29l17.82,10.29V291.27z M234.84,257.73
						l-20.59,11.89v23.77l20.59,11.89l20.59-11.89v-2.12v-2.78v-18.88L234.84,257.73L234.84,257.73z"/>
					<path class="st3" d="M276.2,250.49v0.52l-17.82,10.29l-17.82-10.29v-20.57l17.82-10.29l17.82,10.29V250.49z M258.38,216.95
						l-20.59,11.89v23.77l20.59,11.89l20.59-11.89v-2.12v-2.78v-18.88C278.97,228.83,258.38,216.95,258.38,216.95z"/>
					<path class="st3" d="M299.75,209.71v0.52l-17.82,10.29l-17.82-10.29v-20.57l17.82-10.29l17.82,10.29V209.71z M281.93,176.16
						l-20.59,11.89v23.77l20.59,11.89l20.59-11.89v-2.12v-2.78v-18.88C302.52,188.05,281.93,176.16,281.93,176.16z"/>
					<path class="st3" d="M252.66,209.71v0.52l-17.82,10.29l-17.82-10.29v-20.57l17.82-10.29l17.82,10.29V209.71z M234.84,176.16
						l-20.59,11.89v23.77l20.59,11.89l20.59-11.89v-2.12v-2.78v-18.88L234.84,176.16L234.84,176.16z"/>
				</g>
			</g>
		</g>
		<g>
			<g>
				<defs>
					<rect id="SVGID_33_" x="234.84" y="281.5" width="47.09" height="81.56"/>
				</defs>
				<clipPath id="SVGID_34_">
					<use xlink:href="#SVGID_33_"  style="overflow:visible;"/>
				</clipPath>
				<g class="st18">
					<path class="st3" d="M299.75,291.27v0.52l-17.82,10.29l-17.82-10.29v-20.57l17.82-10.29l17.82,10.29V291.27z M281.93,257.73
						l-20.59,11.89v23.77l20.59,11.89l20.59-11.89v-2.12v-2.78v-18.88L281.93,257.73z"/>
					<path class="st3" d="M252.66,291.27v0.52l-17.82,10.29l-17.82-10.29v-20.57l17.82-10.29l17.82,10.29V291.27z M234.84,257.73
						l-20.59,11.89v23.77l20.59,11.89l20.59-11.89v-2.12v-2.78v-18.88L234.84,257.73L234.84,257.73z"/>
				</g>
			</g>
		</g>
		<g>
			<g>
				<defs>
					<rect id="SVGID_35_" x="187.75" y="36.81" width="47.09" height="81.56"/>
				</defs>
				<clipPath id="SVGID_36_">
					<use xlink:href="#SVGID_35_"  style="overflow:visible;"/>
				</clipPath>
				<g class="st19">
					<path class="st3" d="M252.66,128.14v0.52l-17.82,10.29l-17.82-10.29v-20.57l17.82-10.29l17.82,10.29
						C252.66,108.09,252.66,128.14,252.66,128.14z M234.84,94.6l-20.59,11.89v23.77l20.59,11.89l20.59-11.89v-2.12v-2.78v-18.88
						L234.84,94.6L234.84,94.6z"/>
					<path class="st3" d="M205.57,128.14v0.52l-17.82,10.29l-17.82-10.29v-20.57l17.82-10.29l17.82,10.29
						C205.57,108.09,205.57,128.14,205.57,128.14z M187.75,94.6l-20.59,11.89v23.77l20.59,11.89l20.59-11.89v-2.12v-2.78v-18.88
						L187.75,94.6z"/>
				</g>
			</g>
		</g>
		<g>
			<g>
				<defs>
					<rect id="SVGID_37_" x="187.75" y="118.38" width="47.09" height="81.56"/>
				</defs>
				<clipPath id="SVGID_38_">
					<use xlink:href="#SVGID_37_"  style="overflow:visible;"/>
				</clipPath>
				<g class="st20">
					<path class="st3" d="M252.66,209.71v0.52l-17.82,10.29l-17.82-10.29v-20.57l17.82-10.29l17.82,10.29V209.71z M234.84,176.16
						l-20.59,11.89v23.77l20.59,11.89l20.59-11.89v-2.12v-2.78v-18.88L234.84,176.16L234.84,176.16z"/>
					<path class="st3" d="M205.57,209.71v0.52l-17.82,10.29l-17.82-10.29v-20.57l17.82-10.29l17.82,10.29V209.71z M187.75,176.16
						l-20.59,11.89v23.77l20.59,11.89l20.59-11.89v-2.12v-2.78v-18.88C208.34,188.05,187.75,176.16,187.75,176.16z"/>
					<path class="st3" d="M229.11,168.93v0.52l-17.82,10.29l-17.82-10.29v-20.57l17.82-10.29l17.82,10.29
						C229.11,148.87,229.11,168.93,229.11,168.93z M211.29,135.38l-20.59,11.89v23.77l20.59,11.89l20.59-11.89v-2.12v-2.78v-18.88
						C231.88,147.27,211.29,135.38,211.29,135.38z"/>
					<path class="st3" d="M252.66,128.14v0.52l-17.82,10.29l-17.82-10.29v-20.57l17.82-10.29l17.82,10.29
						C252.66,108.09,252.66,128.14,252.66,128.14z M234.84,94.6l-20.59,11.89v23.77l20.59,11.89l20.59-11.89v-2.12v-2.78v-18.88
						L234.84,94.6L234.84,94.6z"/>
					<path class="st3" d="M205.57,128.14v0.52l-17.82,10.29l-17.82-10.29v-20.57l17.82-10.29l17.82,10.29
						C205.57,108.09,205.57,128.14,205.57,128.14z M187.75,94.6l-20.59,11.89v23.77l20.59,11.89l20.59-11.89v-2.12v-2.78v-18.88
						L187.75,94.6z"/>
				</g>
			</g>
		</g>
		<g>
			<g>
				<defs>
					<rect id="SVGID_39_" x="187.75" y="199.94" width="47.09" height="81.56"/>
				</defs>
				<clipPath id="SVGID_40_">
					<use xlink:href="#SVGID_39_"  style="overflow:visible;"/>
				</clipPath>
				<g class="st21">
					<path class="st3" d="M252.66,291.27v0.52l-17.82,10.29l-17.82-10.29v-20.57l17.82-10.29l17.82,10.29V291.27z M234.84,257.73
						l-20.59,11.89v23.77l20.59,11.89l20.59-11.89v-2.12v-2.78v-18.88L234.84,257.73L234.84,257.73z"/>
					<path class="st3" d="M205.57,291.27v0.52l-17.82,10.29l-17.82-10.29v-20.57l17.82-10.29l17.82,10.29V291.27z M187.75,257.73
						l-20.59,11.89v23.77l20.59,11.89l20.59-11.89v-2.12v-2.78v-18.88L187.75,257.73z"/>
					<path class="st3" d="M229.11,250.49v0.52l-17.82,10.29l-17.82-10.29v-20.57l17.82-10.29l17.82,10.29V250.49z M211.29,216.95
						l-20.59,11.89v23.77l20.59,11.89l20.59-11.89v-2.12v-2.78v-18.88C231.88,228.83,211.29,216.95,211.29,216.95z"/>
					<path class="st3" d="M252.66,209.71v0.52l-17.82,10.29l-17.82-10.29v-20.57l17.82-10.29l17.82,10.29V209.71z M234.84,176.16
						l-20.59,11.89v23.77l20.59,11.89l20.59-11.89v-2.12v-2.78v-18.88L234.84,176.16L234.84,176.16z"/>
					<path class="st3" d="M205.57,209.71v0.52l-17.82,10.29l-17.82-10.29v-20.57l17.82-10.29l17.82,10.29V209.71z M187.75,176.16
						l-20.59,11.89v23.77l20.59,11.89l20.59-11.89v-2.12v-2.78v-18.88C208.34,188.05,187.75,176.16,187.75,176.16z"/>
				</g>
			</g>
		</g>
		<g>
			<g>
				<defs>
					<rect id="SVGID_41_" x="187.75" y="281.5" width="47.09" height="81.56"/>
				</defs>
				<clipPath id="SVGID_42_">
					<use xlink:href="#SVGID_41_"  style="overflow:visible;"/>
				</clipPath>
				<g class="st22">
					<path class="st3" d="M252.66,291.27v0.52l-17.82,10.29l-17.82-10.29v-20.57l17.82-10.29l17.82,10.29V291.27z M234.84,257.73
						l-20.59,11.89v23.77l20.59,11.89l20.59-11.89v-2.12v-2.78v-18.88L234.84,257.73L234.84,257.73z"/>
					<path class="st3" d="M205.57,291.27v0.52l-17.82,10.29l-17.82-10.29v-20.57l17.82-10.29l17.82,10.29V291.27z M187.75,257.73
						l-20.59,11.89v23.77l20.59,11.89l20.59-11.89v-2.12v-2.78v-18.88L187.75,257.73z"/>
				</g>
			</g>
		</g>
		<g>
			<g>
				<defs>
					<rect id="SVGID_43_" x="140.66" y="36.81" width="47.09" height="81.56"/>
				</defs>
				<clipPath id="SVGID_44_">
					<use xlink:href="#SVGID_43_"  style="overflow:visible;"/>
				</clipPath>
				<g class="st23">
					<path class="st3" d="M205.57,128.14v0.52l-17.82,10.29l-17.82-10.29v-20.57l17.82-10.29l17.82,10.29
						C205.57,108.09,205.57,128.14,205.57,128.14z M187.75,94.6l-20.59,11.89v23.77l20.59,11.89l20.59-11.89v-2.12v-2.78v-18.88
						L187.75,94.6z"/>
					<path class="st3" d="M158.48,128.14v0.52l-17.82,10.29l-17.82-10.29v-20.57l17.82-10.29l17.82,10.29
						C158.48,108.09,158.48,128.14,158.48,128.14z M140.66,94.6l-20.59,11.89v23.77l20.59,11.89l20.59-11.89v-2.12v-2.78v-18.88
						L140.66,94.6z"/>
				</g>
			</g>
		</g>
		<g>
			<g>
				<defs>
					<rect id="SVGID_45_" x="140.66" y="118.38" width="47.09" height="81.56"/>
				</defs>
				<clipPath id="SVGID_46_">
					<use xlink:href="#SVGID_45_"  style="overflow:visible;"/>
				</clipPath>
				<g class="st24">
					<path class="st3" d="M205.57,209.71v0.52l-17.82,10.29l-17.82-10.29v-20.57l17.82-10.29l17.82,10.29V209.71z M187.75,176.16
						l-20.59,11.89v23.77l20.59,11.89l20.59-11.89v-2.12v-2.78v-18.88C208.34,188.05,187.75,176.16,187.75,176.16z"/>
					<path class="st3" d="M158.48,209.71v0.52l-17.82,10.29l-17.82-10.29v-20.57l17.82-10.29l17.82,10.29V209.71z M140.66,176.16
						l-20.59,11.89v23.77l20.59,11.89l20.59-11.89v-2.12v-2.78v-18.88C161.25,188.05,140.66,176.16,140.66,176.16z"/>
					<path class="st3" d="M182.02,168.93v0.52l-17.82,10.29l-17.82-10.29v-20.57l17.82-10.29l17.82,10.29
						C182.02,148.87,182.02,168.93,182.02,168.93z M164.2,135.38l-20.59,11.89v23.77l20.59,11.89l20.59-11.89v-2.12v-2.78v-18.88
						C184.79,147.27,164.2,135.38,164.2,135.38z"/>
					<path class="st3" d="M205.57,128.14v0.52l-17.82,10.29l-17.82-10.29v-20.57l17.82-10.29l17.82,10.29
						C205.57,108.09,205.57,128.14,205.57,128.14z M187.75,94.6l-20.59,11.89v23.77l20.59,11.89l20.59-11.89v-2.12v-2.78v-18.88
						L187.75,94.6z"/>
					<path class="st3" d="M158.48,128.14v0.52l-17.82,10.29l-17.82-10.29v-20.57l17.82-10.29l17.82,10.29
						C158.48,108.09,158.48,128.14,158.48,128.14z M140.66,94.6l-20.59,11.89v23.77l20.59,11.89l20.59-11.89v-2.12v-2.78v-18.88
						L140.66,94.6z"/>
				</g>
			</g>
		</g>
		<g>
			<g>
				<defs>
					<rect id="SVGID_47_" x="140.66" y="199.94" width="47.09" height="81.56"/>
				</defs>
				<clipPath id="SVGID_48_">
					<use xlink:href="#SVGID_47_"  style="overflow:visible;"/>
				</clipPath>
				<g class="st25">
					<path class="st3" d="M205.57,291.27v0.52l-17.82,10.29l-17.82-10.29v-20.57l17.82-10.29l17.82,10.29V291.27z M187.75,257.73
						l-20.59,11.89v23.77l20.59,11.89l20.59-11.89v-2.12v-2.78v-18.88L187.75,257.73z"/>
					<path class="st3" d="M158.48,291.27v0.52l-17.82,10.29l-17.82-10.29v-20.57l17.82-10.29l17.82,10.29V291.27z M140.66,257.73
						l-20.59,11.89v23.77l20.59,11.89l20.59-11.89v-2.12v-2.78v-18.88L140.66,257.73z"/>
					<path class="st3" d="M182.02,250.49v0.52l-17.82,10.29l-17.82-10.29v-20.57l17.82-10.29l17.82,10.29V250.49z M164.2,216.95
						l-20.59,11.89v23.77l20.59,11.89l20.59-11.89v-2.12v-2.78v-18.88C184.79,228.83,164.2,216.95,164.2,216.95z"/>
					<path class="st3" d="M205.57,209.71v0.52l-17.82,10.29l-17.82-10.29v-20.57l17.82-10.29l17.82,10.29V209.71z M187.75,176.16
						l-20.59,11.89v23.77l20.59,11.89l20.59-11.89v-2.12v-2.78v-18.88C208.34,188.05,187.75,176.16,187.75,176.16z"/>
					<path class="st3" d="M158.48,209.71v0.52l-17.82,10.29l-17.82-10.29v-20.57l17.82-10.29l17.82,10.29V209.71z M140.66,176.16
						l-20.59,11.89v23.77l20.59,11.89l20.59-11.89v-2.12v-2.78v-18.88C161.25,188.05,140.66,176.16,140.66,176.16z"/>
				</g>
			</g>
		</g>
		<g>
			<g>
				<defs>
					<rect id="SVGID_49_" x="140.66" y="281.5" width="47.09" height="81.56"/>
				</defs>
				<clipPath id="SVGID_50_">
					<use xlink:href="#SVGID_49_"  style="overflow:visible;"/>
				</clipPath>
				<g class="st26">
					<path class="st3" d="M205.57,291.27v0.52l-17.82,10.29l-17.82-10.29v-20.57l17.82-10.29l17.82,10.29V291.27z M187.75,257.73
						l-20.59,11.89v23.77l20.59,11.89l20.59-11.89v-2.12v-2.78v-18.88L187.75,257.73z"/>
					<path class="st3" d="M158.48,291.27v0.52l-17.82,10.29l-17.82-10.29v-20.57l17.82-10.29l17.82,10.29V291.27z M140.66,257.73
						l-20.59,11.89v23.77l20.59,11.89l20.59-11.89v-2.12v-2.78v-18.88L140.66,257.73z"/>
				</g>
			</g>
		</g>
		<g>
			<g>
				<defs>
					<rect id="SVGID_51_" x="93.57" y="36.81" width="47.09" height="81.56"/>
				</defs>
				<clipPath id="SVGID_52_">
					<use xlink:href="#SVGID_51_"  style="overflow:visible;"/>
				</clipPath>
				<g class="st27">
					<path class="st3" d="M158.48,128.14v0.52l-17.82,10.29l-17.82-10.29v-20.57l17.82-10.29l17.82,10.29
						C158.48,108.09,158.48,128.14,158.48,128.14z M140.66,94.6l-20.59,11.89v23.77l20.59,11.89l20.59-11.89v-2.12v-2.78v-18.88
						L140.66,94.6z"/>
					<path class="st3" d="M111.39,128.14v0.52l-17.82,10.29l-17.82-10.29v-20.57L93.57,97.8l17.82,10.29
						C111.39,108.09,111.39,128.14,111.39,128.14z M93.57,94.6l-20.59,11.89v23.77l20.59,11.89l20.59-11.89v-2.12v-2.78v-18.88
						C114.16,106.49,93.57,94.6,93.57,94.6z"/>
				</g>
			</g>
		</g>
		<g>
			<g>
				<defs>
					<rect id="SVGID_53_" x="93.57" y="118.38" width="47.09" height="81.56"/>
				</defs>
				<clipPath id="SVGID_54_">
					<use xlink:href="#SVGID_53_"  style="overflow:visible;"/>
				</clipPath>
				<g class="st28">
					<path class="st3" d="M158.48,209.71v0.52l-17.82,10.29l-17.82-10.29v-20.57l17.82-10.29l17.82,10.29V209.71z M140.66,176.16
						l-20.59,11.89v23.77l20.59,11.89l20.59-11.89v-2.12v-2.78v-18.88C161.25,188.05,140.66,176.16,140.66,176.16z"/>
					<path class="st3" d="M111.39,209.71v0.52l-17.82,10.29l-17.82-10.29v-20.57l17.82-10.29l17.82,10.29V209.71z M93.57,176.16
						l-20.59,11.89v23.77l20.59,11.89l20.59-11.89v-2.12v-2.78v-18.88C114.16,188.05,93.57,176.16,93.57,176.16z"/>
					<path class="st3" d="M134.93,168.93v0.52l-17.82,10.29L99.3,169.44v-20.57l17.82-10.29l17.82,10.29
						C134.93,148.87,134.93,168.93,134.93,168.93z M117.11,135.38l-20.59,11.89v23.77l20.59,11.89l20.59-11.89v-2.12v-2.78v-18.88
						C137.7,147.27,117.11,135.38,117.11,135.38z"/>
					<path class="st3" d="M158.48,128.14v0.52l-17.82,10.29l-17.82-10.29v-20.57l17.82-10.29l17.82,10.29
						C158.48,108.09,158.48,128.14,158.48,128.14z M140.66,94.6l-20.59,11.89v23.77l20.59,11.89l20.59-11.89v-2.12v-2.78v-18.88
						L140.66,94.6z"/>
					<path class="st3" d="M111.39,128.14v0.52l-17.82,10.29l-17.82-10.29v-20.57L93.57,97.8l17.82,10.29
						C111.39,108.09,111.39,128.14,111.39,128.14z M93.57,94.6l-20.59,11.89v23.77l20.59,11.89l20.59-11.89v-2.12v-2.78v-18.88
						C114.16,106.49,93.57,94.6,93.57,94.6z"/>
				</g>
			</g>
		</g>
		<g>
			<g>
				<defs>
					<rect id="SVGID_55_" x="93.57" y="199.94" width="47.09" height="81.56"/>
				</defs>
				<clipPath id="SVGID_56_">
					<use xlink:href="#SVGID_55_"  style="overflow:visible;"/>
				</clipPath>
				<g class="st29">
					<path class="st3" d="M158.48,291.27v0.52l-17.82,10.29l-17.82-10.29v-20.57l17.82-10.29l17.82,10.29V291.27z M140.66,257.73
						l-20.59,11.89v23.77l20.59,11.89l20.59-11.89v-2.12v-2.78v-18.88L140.66,257.73z"/>
					<path class="st3" d="M111.39,291.27v0.52l-17.82,10.29l-17.82-10.29v-20.57l17.82-10.29l17.82,10.29V291.27z M93.57,257.73
						l-20.59,11.89v23.77l20.59,11.89l20.59-11.89v-2.12v-2.78v-18.88C114.16,269.61,93.57,257.73,93.57,257.73z"/>
					<path class="st3" d="M134.93,250.49v0.52l-17.82,10.29L99.3,251.01v-20.57l17.82-10.29l17.82,10.29V250.49z M117.11,216.95
						l-20.59,11.89v23.77l20.59,11.89l20.59-11.89v-2.12v-2.78v-18.88C137.7,228.83,117.11,216.95,117.11,216.95z"/>
					<path class="st3" d="M158.48,209.71v0.52l-17.82,10.29l-17.82-10.29v-20.57l17.82-10.29l17.82,10.29V209.71z M140.66,176.16
						l-20.59,11.89v23.77l20.59,11.89l20.59-11.89v-2.12v-2.78v-18.88C161.25,188.05,140.66,176.16,140.66,176.16z"/>
					<path class="st3" d="M111.39,209.71v0.52l-17.82,10.29l-17.82-10.29v-20.57l17.82-10.29l17.82,10.29V209.71z M93.57,176.16
						l-20.59,11.89v23.77l20.59,11.89l20.59-11.89v-2.12v-2.78v-18.88C114.16,188.05,93.57,176.16,93.57,176.16z"/>
				</g>
			</g>
		</g>
		<g>
			<g>
				<defs>
					<rect id="SVGID_57_" x="93.57" y="281.5" width="47.09" height="81.56"/>
				</defs>
				<clipPath id="SVGID_58_">
					<use xlink:href="#SVGID_57_"  style="overflow:visible;"/>
				</clipPath>
				<g class="st30">
					<path class="st3" d="M158.48,291.27v0.52l-17.82,10.29l-17.82-10.29v-20.57l17.82-10.29l17.82,10.29V291.27z M140.66,257.73
						l-20.59,11.89v23.77l20.59,11.89l20.59-11.89v-2.12v-2.78v-18.88L140.66,257.73z"/>
					<path class="st3" d="M111.39,291.27v0.52l-17.82,10.29l-17.82-10.29v-20.57l17.82-10.29l17.82,10.29V291.27z M93.57,257.73
						l-20.59,11.89v23.77l20.59,11.89l20.59-11.89v-2.12v-2.78v-18.88C114.16,269.61,93.57,257.73,93.57,257.73z"/>
				</g>
			</g>
		</g>
		<g>
			<g>
				<defs>
					<rect id="SVGID_59_" x="46.48" y="36.81" width="47.09" height="81.56"/>
				</defs>
				<clipPath id="SVGID_60_">
					<use xlink:href="#SVGID_59_"  style="overflow:visible;"/>
				</clipPath>
				<g class="st31">
					<path class="st3" d="M111.39,128.14v0.52l-17.82,10.29l-17.82-10.29v-20.57L93.57,97.8l17.82,10.29
						C111.39,108.09,111.39,128.14,111.39,128.14z M93.57,94.6l-20.59,11.89v23.77l20.59,11.89l20.59-11.89v-2.12v-2.78v-18.88
						C114.16,106.49,93.57,94.6,93.57,94.6z"/>
					<path class="st3" d="M64.3,128.14v0.52l-17.82,10.29l-17.82-10.29v-20.57L46.48,97.8l17.82,10.29
						C64.3,108.09,64.3,128.14,64.3,128.14z M46.48,94.6l-20.59,11.89v23.77l20.59,11.89l20.59-11.89v-2.12v-2.78v-18.88
						C67.07,106.49,46.48,94.6,46.48,94.6z"/>
				</g>
			</g>
		</g>
		<g>
			<g>
				<defs>
					<rect id="SVGID_61_" x="46.48" y="118.38" width="47.09" height="81.56"/>
				</defs>
				<clipPath id="SVGID_62_">
					<use xlink:href="#SVGID_61_"  style="overflow:visible;"/>
				</clipPath>
				<g class="st32">
					<path class="st3" d="M111.39,209.71v0.52l-17.82,10.29l-17.82-10.29v-20.57l17.82-10.29l17.82,10.29V209.71z M93.57,176.16
						l-20.59,11.89v23.77l20.59,11.89l20.59-11.89v-2.12v-2.78v-18.88C114.16,188.05,93.57,176.16,93.57,176.16z"/>
					<path class="st3" d="M64.3,209.71v0.52l-17.82,10.29l-17.82-10.29v-20.57l17.82-10.29l17.82,10.29V209.71z M46.48,176.16
						l-20.59,11.89v23.77l20.59,11.89l20.59-11.89v-2.12v-2.78v-18.88C67.07,188.05,46.48,176.16,46.48,176.16z"/>
					<path class="st3" d="M87.84,168.93v0.52l-17.82,10.29l-17.82-10.29v-20.57l17.82-10.29l17.82,10.29
						C87.84,148.87,87.84,168.93,87.84,168.93z M70.02,135.38l-20.59,11.89v23.77l20.59,11.89l20.59-11.89v-2.12v-2.78v-18.88
						C90.61,147.27,70.02,135.38,70.02,135.38z"/>
					<path class="st3" d="M111.39,128.14v0.52l-17.82,10.29l-17.82-10.29v-20.57L93.57,97.8l17.82,10.29
						C111.39,108.09,111.39,128.14,111.39,128.14z M93.57,94.6l-20.59,11.89v23.77l20.59,11.89l20.59-11.89v-2.12v-2.78v-18.88
						C114.16,106.49,93.57,94.6,93.57,94.6z"/>
					<path class="st3" d="M64.3,128.14v0.52l-17.82,10.29l-17.82-10.29v-20.57L46.48,97.8l17.82,10.29
						C64.3,108.09,64.3,128.14,64.3,128.14z M46.48,94.6l-20.59,11.89v23.77l20.59,11.89l20.59-11.89v-2.12v-2.78v-18.88
						C67.07,106.49,46.48,94.6,46.48,94.6z"/>
				</g>
			</g>
		</g>
		<g>
			<g>
				<defs>
					<rect id="SVGID_63_" x="46.48" y="199.94" width="47.09" height="81.56"/>
				</defs>
				<clipPath id="SVGID_64_">
					<use xlink:href="#SVGID_63_"  style="overflow:visible;"/>
				</clipPath>
				<g class="st33">
					<path class="st3" d="M111.39,291.27v0.52l-17.82,10.29l-17.82-10.29v-20.57l17.82-10.29l17.82,10.29V291.27z M93.57,257.73
						l-20.59,11.89v23.77l20.59,11.89l20.59-11.89v-2.12v-2.78v-18.88C114.16,269.61,93.57,257.73,93.57,257.73z"/>
					<path class="st3" d="M64.3,291.27v0.52l-17.82,10.29l-17.82-10.29v-20.57l17.82-10.29l17.82,10.29V291.27z M46.48,257.73
						l-20.59,11.89v23.77l20.59,11.89l20.59-11.89v-2.12v-2.78v-18.88C67.07,269.61,46.48,257.73,46.48,257.73z"/>
					<path class="st3" d="M87.84,250.49v0.52l-17.82,10.29l-17.82-10.29v-20.57l17.82-10.29l17.82,10.29V250.49z M70.02,216.95
						l-20.59,11.89v23.77l20.59,11.89l20.59-11.89v-2.12v-2.78v-18.88C90.61,228.83,70.02,216.95,70.02,216.95z"/>
					<path class="st3" d="M111.39,209.71v0.52l-17.82,10.29l-17.82-10.29v-20.57l17.82-10.29l17.82,10.29V209.71z M93.57,176.16
						l-20.59,11.89v23.77l20.59,11.89l20.59-11.89v-2.12v-2.78v-18.88C114.16,188.05,93.57,176.16,93.57,176.16z"/>
					<path class="st3" d="M64.3,209.71v0.52l-17.82,10.29l-17.82-10.29v-20.57l17.82-10.29l17.82,10.29V209.71z M46.48,176.16
						l-20.59,11.89v23.77l20.59,11.89l20.59-11.89v-2.12v-2.78v-18.88C67.07,188.05,46.48,176.16,46.48,176.16z"/>
				</g>
			</g>
		</g>
		<g>
			<g>
				<defs>
					<rect id="SVGID_65_" x="46.48" y="281.5" width="47.09" height="81.56"/>
				</defs>
				<clipPath id="SVGID_66_">
					<use xlink:href="#SVGID_65_"  style="overflow:visible;"/>
				</clipPath>
				<g class="st34">
					<path class="st3" d="M111.39,291.27v0.52l-17.82,10.29l-17.82-10.29v-20.57l17.82-10.29l17.82,10.29V291.27z M93.57,257.73
						l-20.59,11.89v23.77l20.59,11.89l20.59-11.89v-2.12v-2.78v-18.88C114.16,269.61,93.57,257.73,93.57,257.73z"/>
					<path class="st3" d="M64.3,291.27v0.52l-17.82,10.29l-17.82-10.29v-20.57l17.82-10.29l17.82,10.29V291.27z M46.48,257.73
						l-20.59,11.89v23.77l20.59,11.89l20.59-11.89v-2.12v-2.78v-18.88C67.07,269.61,46.48,257.73,46.48,257.73z"/>
				</g>
			</g>
		</g>
		<g>
			<g>
				<defs>
					<rect id="SVGID_67_" x="-0.61" y="36.81" width="47.09" height="81.56"/>
				</defs>
				<clipPath id="SVGID_68_">
					<use xlink:href="#SVGID_67_"  style="overflow:visible;"/>
				</clipPath>
				<g class="st35">
					<path class="st3" d="M64.3,128.14v0.52l-17.82,10.29l-17.82-10.29v-20.57L46.48,97.8l17.82,10.29
						C64.3,108.09,64.3,128.14,64.3,128.14z M46.48,94.6l-20.59,11.89v23.77l20.59,11.89l20.59-11.89v-2.12v-2.78v-18.88
						C67.07,106.49,46.48,94.6,46.48,94.6z"/>
				</g>
			</g>
		</g>
		<g>
			<g>
				<defs>
					<rect id="SVGID_69_" x="-0.61" y="118.38" width="47.09" height="81.56"/>
				</defs>
				<clipPath id="SVGID_70_">
					<use xlink:href="#SVGID_69_"  style="overflow:visible;"/>
				</clipPath>
				<g class="st36">
					<path class="st3" d="M64.3,209.71v0.52l-17.82,10.29l-17.82-10.29v-20.57l17.82-10.29l17.82,10.29V209.71z M46.48,176.16
						l-20.59,11.89v23.77l20.59,11.89l20.59-11.89v-2.12v-2.78v-18.88C67.07,188.05,46.48,176.16,46.48,176.16z"/>
					<path class="st3" d="M40.75,168.93v0.52l-17.82,10.29L5.12,169.44v-20.57l17.82-10.29l17.82,10.29
						C40.75,148.87,40.75,168.93,40.75,168.93z M22.93,135.38L2.35,147.27v23.77l20.59,11.89l20.59-11.89v-2.12v-2.78v-18.88
						C43.52,147.27,22.93,135.38,22.93,135.38z"/>
					<path class="st3" d="M64.3,128.14v0.52l-17.82,10.29l-17.82-10.29v-20.57L46.48,97.8l17.82,10.29
						C64.3,108.09,64.3,128.14,64.3,128.14z M46.48,94.6l-20.59,11.89v23.77l20.59,11.89l20.59-11.89v-2.12v-2.78v-18.88
						C67.07,106.49,46.48,94.6,46.48,94.6z"/>
				</g>
			</g>
		</g>
		<g>
			<g>
				<defs>
					<rect id="SVGID_71_" x="-0.61" y="199.94" width="47.09" height="81.56"/>
				</defs>
				<clipPath id="SVGID_72_">
					<use xlink:href="#SVGID_71_"  style="overflow:visible;"/>
				</clipPath>
				<g class="st37">
					<path class="st3" d="M64.3,291.27v0.52l-17.82,10.29l-17.82-10.29v-20.57l17.82-10.29l17.82,10.29V291.27z M46.48,257.73
						l-20.59,11.89v23.77l20.59,11.89l20.59-11.89v-2.12v-2.78v-18.88C67.07,269.61,46.48,257.73,46.48,257.73z"/>
					<path class="st3" d="M40.75,250.49v0.52l-17.82,10.29L5.12,251.01v-20.57l17.82-10.29l17.82,10.29V250.49z M22.93,216.95
						L2.35,228.83v23.77l20.59,11.89l20.59-11.89v-2.12v-2.78v-18.88C43.52,228.83,22.93,216.95,22.93,216.95z"/>
					<path class="st3" d="M64.3,209.71v0.52l-17.82,10.29l-17.82-10.29v-20.57l17.82-10.29l17.82,10.29V209.71z M46.48,176.16
						l-20.59,11.89v23.77l20.59,11.89l20.59-11.89v-2.12v-2.78v-18.88C67.07,188.05,46.48,176.16,46.48,176.16z"/>
				</g>
			</g>
		</g>
		<g>
			<g>
				<defs>
					<rect id="SVGID_73_" x="-0.61" y="281.5" width="47.09" height="81.56"/>
				</defs>
				<clipPath id="SVGID_74_">
					<use xlink:href="#SVGID_73_"  style="overflow:visible;"/>
				</clipPath>
				<g class="st38">
					<path class="st3" d="M64.3,291.27v0.52l-17.82,10.29l-17.82-10.29v-20.57l17.82-10.29l17.82,10.29V291.27z M46.48,257.73
						l-20.59,11.89v23.77l20.59,11.89l20.59-11.89v-2.12v-2.78v-18.88C67.07,269.61,46.48,257.73,46.48,257.73z"/>
				</g>
			</g>
		</g>
	</g>
</g>
</svg>
